<svg id="Layer_1" data-name="Layer 1" xmlns="http://www.w3.org/2000/svg" viewBox="0 0 60.19 53.13"><defs><style>.cls-1{fill:#c69c6d;}</style></defs><title>dots</title><circle class="cls-1" cx="45.57" cy="0.2" r="0.2"/><circle class="cls-1" cx="47.63" cy="0.2" r="0.2"/><circle class="cls-1" cx="49.69" cy="0.2" r="0.2"/><circle class="cls-1" cx="51.75" cy="0.2" r="0.2"/><circle class="cls-1" cx="53.81" cy="0.2" r="0.2"/><circle class="cls-1" cx="55.87" cy="0.2" r="0.2"/><circle class="cls-1" cx="57.93" cy="0.2" r="0.2"/><circle class="cls-1" cx="59.99" cy="0.2" r="0.2"/><circle class="cls-1" cx="45.57" cy="2.15" r="0.2"/><circle class="cls-1" cx="47.63" cy="2.15" r="0.2"/><circle class="cls-1" cx="49.69" cy="2.15" r="0.2"/><circle class="cls-1" cx="51.75" cy="2.15" r="0.2"/><circle class="cls-1" cx="53.81" cy="2.15" r="0.2"/><circle class="cls-1" cx="55.87" cy="2.15" r="0.2"/><circle class="cls-1" cx="57.93" cy="2.15" r="0.2"/><circle class="cls-1" cx="59.99" cy="2.15" r="0.2"/><circle class="cls-1" cx="45.57" cy="4.1" r="0.2"/><circle class="cls-1" cx="47.63" cy="4.1" r="0.2"/><circle class="cls-1" cx="49.69" cy="4.1" r="0.2"/><circle class="cls-1" cx="51.75" cy="4.1" r="0.2"/><circle class="cls-1" cx="53.81" cy="4.1" r="0.2"/><circle class="cls-1" cx="55.87" cy="4.1" r="0.2"/><circle class="cls-1" cx="57.93" cy="4.1" r="0.2"/><circle class="cls-1" cx="59.99" cy="4.1" r="0.2"/><circle class="cls-1" cx="45.57" cy="6.05" r="0.2"/><circle class="cls-1" cx="47.63" cy="6.05" r="0.2"/><circle class="cls-1" cx="49.69" cy="6.05" r="0.2"/><circle class="cls-1" cx="51.75" cy="6.05" r="0.2"/><circle class="cls-1" cx="53.81" cy="6.05" r="0.2"/><circle class="cls-1" cx="55.87" cy="6.05" r="0.2"/><circle class="cls-1" cx="57.93" cy="6.05" r="0.2"/><circle class="cls-1" cx="59.99" cy="6.05" r="0.2"/><circle class="cls-1" cx="45.57" cy="8" r="0.2"/><circle class="cls-1" cx="47.63" cy="8" r="0.2"/><circle class="cls-1" cx="49.69" cy="8" r="0.2"/><circle class="cls-1" cx="51.75" cy="8" r="0.2"/><circle class="cls-1" cx="53.81" cy="8" r="0.2"/><circle class="cls-1" cx="55.87" cy="8" r="0.2"/><circle class="cls-1" cx="57.93" cy="8" r="0.2"/><circle class="cls-1" cx="59.99" cy="8" r="0.2"/><circle class="cls-1" cx="45.57" cy="9.95" r="0.2"/><circle class="cls-1" cx="47.63" cy="9.95" r="0.2"/><circle class="cls-1" cx="49.69" cy="9.95" r="0.2"/><circle class="cls-1" cx="51.75" cy="9.95" r="0.2"/><circle class="cls-1" cx="53.81" cy="9.95" r="0.2"/><circle class="cls-1" cx="55.87" cy="9.95" r="0.2"/><circle class="cls-1" cx="57.93" cy="9.95" r="0.2"/><circle class="cls-1" cx="59.99" cy="9.95" r="0.2"/><circle class="cls-1" cx="45.57" cy="11.89" r="0.2"/><circle class="cls-1" cx="47.63" cy="11.89" r="0.2"/><circle class="cls-1" cx="49.69" cy="11.89" r="0.2"/><circle class="cls-1" cx="51.75" cy="11.89" r="0.2"/><circle class="cls-1" cx="53.81" cy="11.89" r="0.2"/><circle class="cls-1" cx="55.87" cy="11.89" r="0.2"/><circle class="cls-1" cx="57.93" cy="11.89" r="0.2"/><circle class="cls-1" cx="59.99" cy="11.89" r="0.2"/><circle class="cls-1" cx="45.57" cy="13.84" r="0.2"/><circle class="cls-1" cx="47.63" cy="13.84" r="0.2"/><circle class="cls-1" cx="49.69" cy="13.84" r="0.2"/><circle class="cls-1" cx="51.75" cy="13.84" r="0.2"/><circle class="cls-1" cx="53.81" cy="13.84" r="0.2"/><circle class="cls-1" cx="55.87" cy="13.84" r="0.2"/><circle class="cls-1" cx="57.93" cy="13.84" r="0.2"/><circle class="cls-1" cx="59.99" cy="13.84" r="0.2"/><circle class="cls-1" cx="45.57" cy="15.79" r="0.2"/><circle class="cls-1" cx="47.63" cy="15.79" r="0.2"/><circle class="cls-1" cx="49.69" cy="15.79" r="0.2"/><circle class="cls-1" cx="51.75" cy="15.79" r="0.2"/><circle class="cls-1" cx="53.81" cy="15.79" r="0.2"/><circle class="cls-1" cx="55.87" cy="15.79" r="0.2"/><circle class="cls-1" cx="57.93" cy="15.79" r="0.2"/><circle class="cls-1" cx="59.99" cy="15.79" r="0.2"/><circle class="cls-1" cx="45.57" cy="17.74" r="0.2"/><circle class="cls-1" cx="47.63" cy="17.74" r="0.2"/><circle class="cls-1" cx="49.69" cy="17.74" r="0.2"/><circle class="cls-1" cx="51.75" cy="17.74" r="0.2"/><circle class="cls-1" cx="53.81" cy="17.74" r="0.2"/><circle class="cls-1" cx="55.87" cy="17.74" r="0.2"/><circle class="cls-1" cx="57.93" cy="17.74" r="0.2"/><circle class="cls-1" cx="59.99" cy="17.74" r="0.2"/><circle class="cls-1" cx="45.57" cy="19.69" r="0.2"/><circle class="cls-1" cx="47.63" cy="19.69" r="0.2"/><circle class="cls-1" cx="49.69" cy="19.69" r="0.2"/><circle class="cls-1" cx="51.75" cy="19.69" r="0.2"/><circle class="cls-1" cx="53.81" cy="19.69" r="0.2"/><circle class="cls-1" cx="55.87" cy="19.69" r="0.2"/><circle class="cls-1" cx="57.93" cy="19.69" r="0.2"/><circle class="cls-1" cx="59.99" cy="19.69" r="0.2"/><circle class="cls-1" cx="29.03" cy="0.2" r="0.2"/><circle class="cls-1" cx="31.09" cy="0.2" r="0.2"/><circle class="cls-1" cx="33.15" cy="0.2" r="0.2"/><circle class="cls-1" cx="35.21" cy="0.2" r="0.2"/><circle class="cls-1" cx="37.27" cy="0.2" r="0.2"/><circle class="cls-1" cx="39.33" cy="0.2" r="0.2"/><circle class="cls-1" cx="41.39" cy="0.2" r="0.2"/><circle class="cls-1" cx="43.45" cy="0.2" r="0.2"/><circle class="cls-1" cx="29.03" cy="2.15" r="0.2"/><circle class="cls-1" cx="31.09" cy="2.15" r="0.2"/><circle class="cls-1" cx="33.15" cy="2.15" r="0.2"/><circle class="cls-1" cx="35.21" cy="2.15" r="0.2"/><circle class="cls-1" cx="37.27" cy="2.15" r="0.2"/><circle class="cls-1" cx="39.33" cy="2.15" r="0.2"/><circle class="cls-1" cx="41.39" cy="2.15" r="0.2"/><circle class="cls-1" cx="43.45" cy="2.15" r="0.2"/><circle class="cls-1" cx="29.03" cy="4.1" r="0.2"/><circle class="cls-1" cx="31.09" cy="4.1" r="0.2"/><circle class="cls-1" cx="33.15" cy="4.1" r="0.2"/><circle class="cls-1" cx="35.21" cy="4.1" r="0.2"/><circle class="cls-1" cx="37.27" cy="4.1" r="0.2"/><circle class="cls-1" cx="39.33" cy="4.1" r="0.2"/><circle class="cls-1" cx="41.39" cy="4.1" r="0.2"/><circle class="cls-1" cx="43.45" cy="4.1" r="0.2"/><circle class="cls-1" cx="29.03" cy="6.05" r="0.2"/><circle class="cls-1" cx="31.09" cy="6.05" r="0.2"/><circle class="cls-1" cx="33.15" cy="6.05" r="0.2"/><circle class="cls-1" cx="35.21" cy="6.05" r="0.2"/><circle class="cls-1" cx="37.27" cy="6.05" r="0.2"/><circle class="cls-1" cx="39.33" cy="6.05" r="0.2"/><circle class="cls-1" cx="41.39" cy="6.05" r="0.2"/><circle class="cls-1" cx="43.45" cy="6.05" r="0.2"/><circle class="cls-1" cx="29.03" cy="8" r="0.2"/><circle class="cls-1" cx="31.09" cy="8" r="0.2"/><circle class="cls-1" cx="33.15" cy="8" r="0.2"/><circle class="cls-1" cx="35.21" cy="8" r="0.2"/><circle class="cls-1" cx="37.27" cy="8" r="0.2"/><circle class="cls-1" cx="39.33" cy="8" r="0.2"/><circle class="cls-1" cx="41.39" cy="8" r="0.2"/><circle class="cls-1" cx="43.45" cy="8" r="0.2"/><circle class="cls-1" cx="29.03" cy="9.95" r="0.2"/><circle class="cls-1" cx="31.09" cy="9.95" r="0.2"/><circle class="cls-1" cx="33.15" cy="9.95" r="0.2"/><circle class="cls-1" cx="35.21" cy="9.95" r="0.2"/><circle class="cls-1" cx="37.27" cy="9.95" r="0.2"/><circle class="cls-1" cx="39.33" cy="9.95" r="0.2"/><circle class="cls-1" cx="41.39" cy="9.95" r="0.2"/><circle class="cls-1" cx="43.45" cy="9.95" r="0.2"/><circle class="cls-1" cx="29.03" cy="11.89" r="0.2"/><circle class="cls-1" cx="31.09" cy="11.89" r="0.2"/><circle class="cls-1" cx="33.15" cy="11.89" r="0.2"/><circle class="cls-1" cx="35.21" cy="11.89" r="0.2"/><circle class="cls-1" cx="37.27" cy="11.89" r="0.2"/><circle class="cls-1" cx="39.33" cy="11.89" r="0.2"/><circle class="cls-1" cx="41.39" cy="11.89" r="0.2"/><circle class="cls-1" cx="43.45" cy="11.89" r="0.2"/><circle class="cls-1" cx="29.03" cy="13.84" r="0.2"/><circle class="cls-1" cx="31.09" cy="13.84" r="0.2"/><circle class="cls-1" cx="33.15" cy="13.84" r="0.2"/><circle class="cls-1" cx="35.21" cy="13.84" r="0.2"/><circle class="cls-1" cx="37.27" cy="13.84" r="0.2"/><circle class="cls-1" cx="39.33" cy="13.84" r="0.2"/><circle class="cls-1" cx="41.39" cy="13.84" r="0.2"/><circle class="cls-1" cx="43.45" cy="13.84" r="0.2"/><circle class="cls-1" cx="29.03" cy="15.79" r="0.2"/><circle class="cls-1" cx="31.09" cy="15.79" r="0.2"/><circle class="cls-1" cx="33.15" cy="15.79" r="0.2"/><circle class="cls-1" cx="35.21" cy="15.79" r="0.2"/><circle class="cls-1" cx="37.27" cy="15.79" r="0.2"/><circle class="cls-1" cx="39.33" cy="15.79" r="0.2"/><circle class="cls-1" cx="41.39" cy="15.79" r="0.2"/><circle class="cls-1" cx="43.45" cy="15.79" r="0.2"/><circle class="cls-1" cx="29.03" cy="17.74" r="0.2"/><circle class="cls-1" cx="31.09" cy="17.74" r="0.2"/><circle class="cls-1" cx="33.15" cy="17.74" r="0.2"/><circle class="cls-1" cx="35.21" cy="17.74" r="0.2"/><circle class="cls-1" cx="37.27" cy="17.74" r="0.2"/><circle class="cls-1" cx="39.33" cy="17.74" r="0.2"/><circle class="cls-1" cx="41.39" cy="17.74" r="0.2"/><circle class="cls-1" cx="43.45" cy="17.74" r="0.2"/><circle class="cls-1" cx="29.03" cy="19.69" r="0.2"/><circle class="cls-1" cx="31.09" cy="19.69" r="0.2"/><circle class="cls-1" cx="33.15" cy="19.69" r="0.2"/><circle class="cls-1" cx="35.21" cy="19.69" r="0.2"/><circle class="cls-1" cx="37.27" cy="19.69" r="0.2"/><circle class="cls-1" cx="39.33" cy="19.69" r="0.2"/><circle class="cls-1" cx="41.39" cy="19.69" r="0.2"/><circle class="cls-1" cx="43.45" cy="19.69" r="0.2"/><circle class="cls-1" cx="45.57" cy="21.74" r="0.2"/><circle class="cls-1" cx="47.63" cy="21.74" r="0.2"/><circle class="cls-1" cx="49.69" cy="21.74" r="0.2"/><circle class="cls-1" cx="51.75" cy="21.74" r="0.2"/><circle class="cls-1" cx="53.81" cy="21.74" r="0.2"/><circle class="cls-1" cx="55.87" cy="21.74" r="0.2"/><circle class="cls-1" cx="57.93" cy="21.74" r="0.2"/><circle class="cls-1" cx="59.99" cy="21.74" r="0.2"/><circle class="cls-1" cx="45.57" cy="23.69" r="0.2"/><circle class="cls-1" cx="47.63" cy="23.69" r="0.2"/><circle class="cls-1" cx="49.69" cy="23.69" r="0.2"/><circle class="cls-1" cx="51.75" cy="23.69" r="0.2"/><circle class="cls-1" cx="53.81" cy="23.69" r="0.2"/><circle class="cls-1" cx="55.87" cy="23.69" r="0.2"/><circle class="cls-1" cx="57.93" cy="23.69" r="0.2"/><circle class="cls-1" cx="59.99" cy="23.69" r="0.2"/><circle class="cls-1" cx="45.57" cy="25.64" r="0.2"/><circle class="cls-1" cx="47.63" cy="25.64" r="0.2"/><circle class="cls-1" cx="49.69" cy="25.64" r="0.2"/><circle class="cls-1" cx="51.75" cy="25.64" r="0.2"/><circle class="cls-1" cx="53.81" cy="25.64" r="0.2"/><circle class="cls-1" cx="55.87" cy="25.64" r="0.2"/><circle class="cls-1" cx="57.93" cy="25.64" r="0.2"/><circle class="cls-1" cx="59.99" cy="25.64" r="0.2"/><circle class="cls-1" cx="29.03" cy="21.74" r="0.2"/><circle class="cls-1" cx="31.09" cy="21.74" r="0.2"/><circle class="cls-1" cx="33.15" cy="21.74" r="0.2"/><circle class="cls-1" cx="35.21" cy="21.74" r="0.2"/><circle class="cls-1" cx="37.27" cy="21.74" r="0.2"/><circle class="cls-1" cx="39.33" cy="21.74" r="0.2"/><circle class="cls-1" cx="41.39" cy="21.74" r="0.2"/><circle class="cls-1" cx="43.45" cy="21.74" r="0.2"/><circle class="cls-1" cx="29.03" cy="23.69" r="0.2"/><circle class="cls-1" cx="31.09" cy="23.69" r="0.2"/><circle class="cls-1" cx="33.15" cy="23.69" r="0.2"/><circle class="cls-1" cx="35.21" cy="23.69" r="0.2"/><circle class="cls-1" cx="37.27" cy="23.69" r="0.2"/><circle class="cls-1" cx="39.33" cy="23.69" r="0.2"/><circle class="cls-1" cx="41.39" cy="23.69" r="0.2"/><circle class="cls-1" cx="43.45" cy="23.69" r="0.2"/><circle class="cls-1" cx="29.03" cy="25.64" r="0.2"/><circle class="cls-1" cx="31.09" cy="25.64" r="0.2"/><circle class="cls-1" cx="33.15" cy="25.64" r="0.2"/><circle class="cls-1" cx="35.21" cy="25.64" r="0.2"/><circle class="cls-1" cx="37.27" cy="25.64" r="0.2"/><circle class="cls-1" cx="39.33" cy="25.64" r="0.2"/><circle class="cls-1" cx="41.39" cy="25.64" r="0.2"/><circle class="cls-1" cx="43.45" cy="25.64" r="0.2"/><circle class="cls-1" cx="45.57" cy="27.49" r="0.2"/><circle class="cls-1" cx="47.63" cy="27.49" r="0.2"/><circle class="cls-1" cx="49.69" cy="27.49" r="0.2"/><circle class="cls-1" cx="51.75" cy="27.49" r="0.2"/><circle class="cls-1" cx="53.81" cy="27.49" r="0.2"/><circle class="cls-1" cx="55.87" cy="27.49" r="0.2"/><circle class="cls-1" cx="57.93" cy="27.49" r="0.2"/><circle class="cls-1" cx="59.99" cy="27.49" r="0.2"/><circle class="cls-1" cx="45.57" cy="29.44" r="0.2"/><circle class="cls-1" cx="47.63" cy="29.44" r="0.2"/><circle class="cls-1" cx="49.69" cy="29.44" r="0.2"/><circle class="cls-1" cx="51.75" cy="29.44" r="0.2"/><circle class="cls-1" cx="53.81" cy="29.44" r="0.2"/><circle class="cls-1" cx="55.87" cy="29.44" r="0.2"/><circle class="cls-1" cx="57.93" cy="29.44" r="0.2"/><circle class="cls-1" cx="59.99" cy="29.44" r="0.2"/><circle class="cls-1" cx="45.57" cy="31.39" r="0.2"/><circle class="cls-1" cx="47.63" cy="31.39" r="0.2"/><circle class="cls-1" cx="49.69" cy="31.39" r="0.2"/><circle class="cls-1" cx="51.75" cy="31.39" r="0.2"/><circle class="cls-1" cx="53.81" cy="31.39" r="0.2"/><circle class="cls-1" cx="55.87" cy="31.39" r="0.2"/><circle class="cls-1" cx="57.93" cy="31.39" r="0.2"/><circle class="cls-1" cx="59.99" cy="31.39" r="0.2"/><circle class="cls-1" cx="45.57" cy="33.34" r="0.2"/><circle class="cls-1" cx="47.63" cy="33.34" r="0.2"/><circle class="cls-1" cx="49.69" cy="33.34" r="0.2"/><circle class="cls-1" cx="51.75" cy="33.34" r="0.2"/><circle class="cls-1" cx="53.81" cy="33.34" r="0.2"/><circle class="cls-1" cx="55.87" cy="33.34" r="0.2"/><circle class="cls-1" cx="57.93" cy="33.34" r="0.2"/><circle class="cls-1" cx="59.99" cy="33.34" r="0.2"/><circle class="cls-1" cx="45.57" cy="35.29" r="0.2"/><circle class="cls-1" cx="47.63" cy="35.29" r="0.2"/><circle class="cls-1" cx="49.69" cy="35.29" r="0.2"/><circle class="cls-1" cx="51.75" cy="35.29" r="0.2"/><circle class="cls-1" cx="53.81" cy="35.29" r="0.2"/><circle class="cls-1" cx="55.87" cy="35.29" r="0.2"/><circle class="cls-1" cx="57.93" cy="35.29" r="0.2"/><circle class="cls-1" cx="59.99" cy="35.29" r="0.2"/><circle class="cls-1" cx="45.57" cy="37.24" r="0.2"/><circle class="cls-1" cx="47.63" cy="37.24" r="0.2"/><circle class="cls-1" cx="49.69" cy="37.24" r="0.2"/><circle class="cls-1" cx="51.75" cy="37.24" r="0.2"/><circle class="cls-1" cx="53.81" cy="37.24" r="0.2"/><circle class="cls-1" cx="55.87" cy="37.24" r="0.2"/><circle class="cls-1" cx="57.93" cy="37.24" r="0.2"/><circle class="cls-1" cx="59.99" cy="37.24" r="0.2"/><circle class="cls-1" cx="45.57" cy="39.19" r="0.2"/><circle class="cls-1" cx="47.63" cy="39.19" r="0.2"/><circle class="cls-1" cx="49.69" cy="39.19" r="0.2"/><circle class="cls-1" cx="51.75" cy="39.19" r="0.2"/><circle class="cls-1" cx="53.81" cy="39.19" r="0.2"/><circle class="cls-1" cx="55.87" cy="39.19" r="0.2"/><circle class="cls-1" cx="57.93" cy="39.19" r="0.2"/><circle class="cls-1" cx="59.99" cy="39.19" r="0.2"/><circle class="cls-1" cx="45.57" cy="41.14" r="0.2"/><circle class="cls-1" cx="47.63" cy="41.14" r="0.2"/><circle class="cls-1" cx="49.69" cy="41.14" r="0.2"/><circle class="cls-1" cx="51.75" cy="41.14" r="0.2"/><circle class="cls-1" cx="53.81" cy="41.14" r="0.2"/><circle class="cls-1" cx="55.87" cy="41.14" r="0.2"/><circle class="cls-1" cx="57.93" cy="41.14" r="0.2"/><circle class="cls-1" cx="59.99" cy="41.14" r="0.2"/><circle class="cls-1" cx="45.57" cy="43.09" r="0.2"/><circle class="cls-1" cx="47.63" cy="43.09" r="0.2"/><circle class="cls-1" cx="49.69" cy="43.09" r="0.2"/><circle class="cls-1" cx="51.75" cy="43.09" r="0.2"/><circle class="cls-1" cx="53.81" cy="43.09" r="0.2"/><circle class="cls-1" cx="55.87" cy="43.09" r="0.2"/><circle class="cls-1" cx="57.93" cy="43.09" r="0.2"/><circle class="cls-1" cx="59.99" cy="43.09" r="0.2"/><circle class="cls-1" cx="45.57" cy="45.04" r="0.2"/><circle class="cls-1" cx="47.63" cy="45.04" r="0.2"/><circle class="cls-1" cx="49.69" cy="45.04" r="0.2"/><circle class="cls-1" cx="51.75" cy="45.04" r="0.2"/><circle class="cls-1" cx="53.81" cy="45.04" r="0.2"/><circle class="cls-1" cx="55.87" cy="45.04" r="0.2"/><circle class="cls-1" cx="57.93" cy="45.04" r="0.2"/><circle class="cls-1" cx="59.99" cy="45.04" r="0.2"/><circle class="cls-1" cx="45.57" cy="46.98" r="0.2"/><circle class="cls-1" cx="47.63" cy="46.98" r="0.2"/><circle class="cls-1" cx="49.69" cy="46.98" r="0.2"/><circle class="cls-1" cx="51.75" cy="46.98" r="0.2"/><circle class="cls-1" cx="53.81" cy="46.98" r="0.2"/><circle class="cls-1" cx="55.87" cy="46.98" r="0.2"/><circle class="cls-1" cx="57.93" cy="46.98" r="0.2"/><circle class="cls-1" cx="59.99" cy="46.98" r="0.2"/><circle class="cls-1" cx="29.03" cy="27.49" r="0.2"/><circle class="cls-1" cx="31.09" cy="27.49" r="0.2"/><circle class="cls-1" cx="33.15" cy="27.49" r="0.2"/><circle class="cls-1" cx="35.21" cy="27.49" r="0.2"/><circle class="cls-1" cx="37.27" cy="27.49" r="0.2"/><circle class="cls-1" cx="39.33" cy="27.49" r="0.2"/><circle class="cls-1" cx="41.39" cy="27.49" r="0.2"/><circle class="cls-1" cx="43.45" cy="27.49" r="0.2"/><circle class="cls-1" cx="29.03" cy="29.44" r="0.2"/><circle class="cls-1" cx="31.09" cy="29.44" r="0.2"/><circle class="cls-1" cx="33.15" cy="29.44" r="0.2"/><circle class="cls-1" cx="35.21" cy="29.44" r="0.2"/><circle class="cls-1" cx="37.27" cy="29.44" r="0.2"/><circle class="cls-1" cx="39.33" cy="29.44" r="0.2"/><circle class="cls-1" cx="41.39" cy="29.44" r="0.2"/><circle class="cls-1" cx="43.45" cy="29.44" r="0.2"/><circle class="cls-1" cx="29.03" cy="31.39" r="0.2"/><circle class="cls-1" cx="31.09" cy="31.39" r="0.2"/><circle class="cls-1" cx="33.15" cy="31.39" r="0.2"/><circle class="cls-1" cx="35.21" cy="31.39" r="0.2"/><circle class="cls-1" cx="37.27" cy="31.39" r="0.2"/><circle class="cls-1" cx="39.33" cy="31.39" r="0.2"/><circle class="cls-1" cx="41.39" cy="31.39" r="0.2"/><circle class="cls-1" cx="43.45" cy="31.39" r="0.2"/><circle class="cls-1" cx="29.03" cy="33.34" r="0.2"/><circle class="cls-1" cx="31.09" cy="33.34" r="0.2"/><circle class="cls-1" cx="33.15" cy="33.34" r="0.2"/><circle class="cls-1" cx="35.21" cy="33.34" r="0.2"/><circle class="cls-1" cx="37.27" cy="33.34" r="0.2"/><circle class="cls-1" cx="39.33" cy="33.34" r="0.2"/><circle class="cls-1" cx="41.39" cy="33.34" r="0.2"/><circle class="cls-1" cx="43.45" cy="33.34" r="0.2"/><circle class="cls-1" cx="29.03" cy="35.29" r="0.2"/><circle class="cls-1" cx="31.09" cy="35.29" r="0.2"/><circle class="cls-1" cx="33.15" cy="35.29" r="0.2"/><circle class="cls-1" cx="35.21" cy="35.29" r="0.2"/><circle class="cls-1" cx="37.27" cy="35.29" r="0.2"/><circle class="cls-1" cx="39.33" cy="35.29" r="0.2"/><circle class="cls-1" cx="41.39" cy="35.29" r="0.2"/><circle class="cls-1" cx="43.45" cy="35.29" r="0.2"/><circle class="cls-1" cx="29.03" cy="37.24" r="0.2"/><circle class="cls-1" cx="31.09" cy="37.24" r="0.2"/><circle class="cls-1" cx="33.15" cy="37.24" r="0.2"/><circle class="cls-1" cx="35.21" cy="37.24" r="0.2"/><circle class="cls-1" cx="37.27" cy="37.24" r="0.2"/><circle class="cls-1" cx="39.33" cy="37.24" r="0.2"/><circle class="cls-1" cx="41.39" cy="37.24" r="0.2"/><circle class="cls-1" cx="43.45" cy="37.24" r="0.2"/><circle class="cls-1" cx="29.03" cy="39.19" r="0.2"/><circle class="cls-1" cx="31.09" cy="39.19" r="0.2"/><circle class="cls-1" cx="33.15" cy="39.19" r="0.2"/><circle class="cls-1" cx="35.21" cy="39.19" r="0.2"/><circle class="cls-1" cx="37.27" cy="39.19" r="0.2"/><circle class="cls-1" cx="39.33" cy="39.19" r="0.2"/><circle class="cls-1" cx="41.39" cy="39.19" r="0.2"/><circle class="cls-1" cx="43.45" cy="39.19" r="0.2"/><circle class="cls-1" cx="29.03" cy="41.14" r="0.2"/><circle class="cls-1" cx="31.09" cy="41.14" r="0.2"/><circle class="cls-1" cx="33.15" cy="41.14" r="0.2"/><circle class="cls-1" cx="35.21" cy="41.14" r="0.2"/><circle class="cls-1" cx="37.27" cy="41.14" r="0.2"/><circle class="cls-1" cx="39.33" cy="41.14" r="0.2"/><circle class="cls-1" cx="41.39" cy="41.14" r="0.2"/><circle class="cls-1" cx="43.45" cy="41.14" r="0.2"/><circle class="cls-1" cx="29.03" cy="43.09" r="0.2"/><circle class="cls-1" cx="31.09" cy="43.09" r="0.2"/><circle class="cls-1" cx="33.15" cy="43.09" r="0.2"/><circle class="cls-1" cx="35.21" cy="43.09" r="0.2"/><circle class="cls-1" cx="37.27" cy="43.09" r="0.2"/><circle class="cls-1" cx="39.33" cy="43.09" r="0.2"/><circle class="cls-1" cx="41.39" cy="43.09" r="0.2"/><circle class="cls-1" cx="43.45" cy="43.09" r="0.2"/><circle class="cls-1" cx="29.03" cy="45.04" r="0.2"/><circle class="cls-1" cx="31.09" cy="45.04" r="0.2"/><circle class="cls-1" cx="33.15" cy="45.04" r="0.2"/><circle class="cls-1" cx="35.21" cy="45.04" r="0.2"/><circle class="cls-1" cx="37.27" cy="45.04" r="0.2"/><circle class="cls-1" cx="39.33" cy="45.04" r="0.2"/><circle class="cls-1" cx="41.39" cy="45.04" r="0.2"/><circle class="cls-1" cx="43.45" cy="45.04" r="0.2"/><circle class="cls-1" cx="29.03" cy="46.98" r="0.2"/><circle class="cls-1" cx="31.09" cy="46.98" r="0.2"/><circle class="cls-1" cx="33.15" cy="46.98" r="0.2"/><circle class="cls-1" cx="35.21" cy="46.98" r="0.2"/><circle class="cls-1" cx="37.27" cy="46.98" r="0.2"/><circle class="cls-1" cx="39.33" cy="46.98" r="0.2"/><circle class="cls-1" cx="41.39" cy="46.98" r="0.2"/><circle class="cls-1" cx="43.45" cy="46.98" r="0.2"/><circle class="cls-1" cx="45.57" cy="49.04" r="0.2"/><circle class="cls-1" cx="47.63" cy="49.04" r="0.2"/><circle class="cls-1" cx="49.69" cy="49.04" r="0.2"/><circle class="cls-1" cx="51.75" cy="49.04" r="0.2"/><circle class="cls-1" cx="53.81" cy="49.04" r="0.2"/><circle class="cls-1" cx="55.87" cy="49.04" r="0.2"/><circle class="cls-1" cx="57.93" cy="49.04" r="0.2"/><circle class="cls-1" cx="59.99" cy="49.04" r="0.2"/><circle class="cls-1" cx="45.57" cy="50.99" r="0.2"/><circle class="cls-1" cx="47.63" cy="50.99" r="0.2"/><circle class="cls-1" cx="49.69" cy="50.99" r="0.2"/><circle class="cls-1" cx="51.75" cy="50.99" r="0.2"/><circle class="cls-1" cx="53.81" cy="50.99" r="0.2"/><circle class="cls-1" cx="55.87" cy="50.99" r="0.2"/><circle class="cls-1" cx="57.93" cy="50.99" r="0.2"/><circle class="cls-1" cx="59.99" cy="50.99" r="0.2"/><circle class="cls-1" cx="45.57" cy="52.93" r="0.2"/><circle class="cls-1" cx="47.63" cy="52.93" r="0.2"/><circle class="cls-1" cx="49.69" cy="52.93" r="0.2"/><circle class="cls-1" cx="51.75" cy="52.93" r="0.2"/><circle class="cls-1" cx="53.81" cy="52.93" r="0.2"/><circle class="cls-1" cx="55.87" cy="52.93" r="0.2"/><circle class="cls-1" cx="57.93" cy="52.93" r="0.2"/><circle class="cls-1" cx="59.99" cy="52.93" r="0.2"/><circle class="cls-1" cx="29.03" cy="49.04" r="0.2"/><circle class="cls-1" cx="31.09" cy="49.04" r="0.2"/><circle class="cls-1" cx="33.15" cy="49.04" r="0.2"/><circle class="cls-1" cx="35.21" cy="49.04" r="0.2"/><circle class="cls-1" cx="37.27" cy="49.04" r="0.2"/><circle class="cls-1" cx="39.33" cy="49.04" r="0.2"/><circle class="cls-1" cx="41.39" cy="49.04" r="0.2"/><circle class="cls-1" cx="43.45" cy="49.04" r="0.2"/><circle class="cls-1" cx="29.03" cy="50.99" r="0.2"/><circle class="cls-1" cx="31.09" cy="50.99" r="0.2"/><circle class="cls-1" cx="33.15" cy="50.99" r="0.2"/><circle class="cls-1" cx="35.21" cy="50.99" r="0.2"/><circle class="cls-1" cx="37.27" cy="50.99" r="0.2"/><circle class="cls-1" cx="39.33" cy="50.99" r="0.2"/><circle class="cls-1" cx="41.39" cy="50.99" r="0.2"/><circle class="cls-1" cx="43.45" cy="50.99" r="0.2"/><circle class="cls-1" cx="29.03" cy="52.93" r="0.2"/><circle class="cls-1" cx="31.09" cy="52.93" r="0.2"/><circle class="cls-1" cx="33.15" cy="52.93" r="0.2"/><circle class="cls-1" cx="35.21" cy="52.93" r="0.2"/><circle class="cls-1" cx="37.27" cy="52.93" r="0.2"/><circle class="cls-1" cx="39.33" cy="52.93" r="0.2"/><circle class="cls-1" cx="41.39" cy="52.93" r="0.2"/><circle class="cls-1" cx="43.45" cy="52.93" r="0.2"/><circle class="cls-1" cx="12.56" cy="0.2" r="0.2"/><circle class="cls-1" cx="14.62" cy="0.2" r="0.2"/><circle class="cls-1" cx="16.68" cy="0.2" r="0.2"/><circle class="cls-1" cx="18.74" cy="0.2" r="0.2"/><circle class="cls-1" cx="20.8" cy="0.2" r="0.2"/><circle class="cls-1" cx="22.86" cy="0.2" r="0.2"/><circle class="cls-1" cx="24.91" cy="0.2" r="0.2"/><circle class="cls-1" cx="26.97" cy="0.2" r="0.2"/><circle class="cls-1" cx="12.56" cy="2.15" r="0.2"/><circle class="cls-1" cx="14.62" cy="2.15" r="0.2"/><circle class="cls-1" cx="16.68" cy="2.15" r="0.2"/><circle class="cls-1" cx="18.74" cy="2.15" r="0.2"/><circle class="cls-1" cx="20.8" cy="2.15" r="0.2"/><circle class="cls-1" cx="22.86" cy="2.15" r="0.2"/><circle class="cls-1" cx="24.91" cy="2.15" r="0.2"/><circle class="cls-1" cx="26.97" cy="2.15" r="0.2"/><circle class="cls-1" cx="12.56" cy="4.1" r="0.2"/><circle class="cls-1" cx="14.62" cy="4.1" r="0.2"/><circle class="cls-1" cx="16.68" cy="4.1" r="0.2"/><circle class="cls-1" cx="18.74" cy="4.1" r="0.2"/><circle class="cls-1" cx="20.8" cy="4.1" r="0.2"/><circle class="cls-1" cx="22.86" cy="4.1" r="0.2"/><circle class="cls-1" cx="24.91" cy="4.1" r="0.2"/><circle class="cls-1" cx="26.97" cy="4.1" r="0.2"/><circle class="cls-1" cx="12.56" cy="6.05" r="0.2"/><circle class="cls-1" cx="14.62" cy="6.05" r="0.2"/><circle class="cls-1" cx="16.68" cy="6.05" r="0.2"/><circle class="cls-1" cx="18.74" cy="6.05" r="0.2"/><circle class="cls-1" cx="20.8" cy="6.05" r="0.2"/><circle class="cls-1" cx="22.86" cy="6.05" r="0.2"/><circle class="cls-1" cx="24.91" cy="6.05" r="0.2"/><circle class="cls-1" cx="26.97" cy="6.05" r="0.2"/><circle class="cls-1" cx="12.56" cy="8" r="0.2"/><circle class="cls-1" cx="14.62" cy="8" r="0.2"/><circle class="cls-1" cx="16.68" cy="8" r="0.2"/><circle class="cls-1" cx="18.74" cy="8" r="0.2"/><circle class="cls-1" cx="20.8" cy="8" r="0.2"/><circle class="cls-1" cx="22.86" cy="8" r="0.2"/><circle class="cls-1" cx="24.91" cy="8" r="0.2"/><circle class="cls-1" cx="26.97" cy="8" r="0.2"/><circle class="cls-1" cx="12.56" cy="9.95" r="0.2"/><circle class="cls-1" cx="14.62" cy="9.95" r="0.2"/><circle class="cls-1" cx="16.68" cy="9.95" r="0.2"/><circle class="cls-1" cx="18.74" cy="9.95" r="0.2"/><circle class="cls-1" cx="20.8" cy="9.95" r="0.2"/><circle class="cls-1" cx="22.86" cy="9.95" r="0.2"/><circle class="cls-1" cx="24.91" cy="9.95" r="0.2"/><circle class="cls-1" cx="26.97" cy="9.95" r="0.2"/><circle class="cls-1" cx="12.56" cy="11.89" r="0.2"/><circle class="cls-1" cx="14.62" cy="11.89" r="0.2"/><circle class="cls-1" cx="16.68" cy="11.89" r="0.2"/><circle class="cls-1" cx="18.74" cy="11.89" r="0.2"/><circle class="cls-1" cx="20.8" cy="11.89" r="0.2"/><circle class="cls-1" cx="22.86" cy="11.89" r="0.2"/><circle class="cls-1" cx="24.91" cy="11.89" r="0.2"/><circle class="cls-1" cx="26.97" cy="11.89" r="0.2"/><circle class="cls-1" cx="12.56" cy="13.84" r="0.2"/><circle class="cls-1" cx="14.62" cy="13.84" r="0.2"/><circle class="cls-1" cx="16.68" cy="13.84" r="0.2"/><circle class="cls-1" cx="18.74" cy="13.84" r="0.2"/><circle class="cls-1" cx="20.8" cy="13.84" r="0.2"/><circle class="cls-1" cx="22.86" cy="13.84" r="0.2"/><circle class="cls-1" cx="24.91" cy="13.84" r="0.2"/><circle class="cls-1" cx="26.97" cy="13.84" r="0.2"/><circle class="cls-1" cx="12.56" cy="15.79" r="0.2"/><circle class="cls-1" cx="14.62" cy="15.79" r="0.2"/><circle class="cls-1" cx="16.68" cy="15.79" r="0.2"/><circle class="cls-1" cx="18.74" cy="15.79" r="0.2"/><circle class="cls-1" cx="20.8" cy="15.79" r="0.2"/><circle class="cls-1" cx="22.86" cy="15.79" r="0.2"/><circle class="cls-1" cx="24.91" cy="15.79" r="0.2"/><circle class="cls-1" cx="26.97" cy="15.79" r="0.2"/><circle class="cls-1" cx="12.56" cy="17.74" r="0.2"/><circle class="cls-1" cx="14.62" cy="17.74" r="0.2"/><circle class="cls-1" cx="16.68" cy="17.74" r="0.2"/><circle class="cls-1" cx="18.74" cy="17.74" r="0.2"/><circle class="cls-1" cx="20.8" cy="17.74" r="0.2"/><circle class="cls-1" cx="22.86" cy="17.74" r="0.2"/><circle class="cls-1" cx="24.91" cy="17.74" r="0.2"/><circle class="cls-1" cx="26.97" cy="17.74" r="0.2"/><circle class="cls-1" cx="12.56" cy="19.69" r="0.2"/><circle class="cls-1" cx="14.62" cy="19.69" r="0.2"/><circle class="cls-1" cx="16.68" cy="19.69" r="0.2"/><circle class="cls-1" cx="18.74" cy="19.69" r="0.2"/><circle class="cls-1" cx="20.8" cy="19.69" r="0.2"/><circle class="cls-1" cx="22.86" cy="19.69" r="0.2"/><circle class="cls-1" cx="24.91" cy="19.69" r="0.2"/><circle class="cls-1" cx="26.97" cy="19.69" r="0.2"/><circle class="cls-1" cx="12.56" cy="21.74" r="0.2"/><circle class="cls-1" cx="14.62" cy="21.74" r="0.2"/><circle class="cls-1" cx="16.68" cy="21.74" r="0.2"/><circle class="cls-1" cx="18.74" cy="21.74" r="0.2"/><circle class="cls-1" cx="20.8" cy="21.74" r="0.2"/><circle class="cls-1" cx="22.86" cy="21.74" r="0.2"/><circle class="cls-1" cx="24.91" cy="21.74" r="0.2"/><circle class="cls-1" cx="26.97" cy="21.74" r="0.2"/><circle class="cls-1" cx="12.56" cy="23.69" r="0.2"/><circle class="cls-1" cx="14.62" cy="23.69" r="0.2"/><circle class="cls-1" cx="16.68" cy="23.69" r="0.2"/><circle class="cls-1" cx="18.74" cy="23.69" r="0.2"/><circle class="cls-1" cx="20.8" cy="23.69" r="0.2"/><circle class="cls-1" cx="22.86" cy="23.69" r="0.2"/><circle class="cls-1" cx="24.91" cy="23.69" r="0.2"/><circle class="cls-1" cx="26.97" cy="23.69" r="0.2"/><circle class="cls-1" cx="12.56" cy="25.64" r="0.2"/><circle class="cls-1" cx="14.62" cy="25.64" r="0.2"/><circle class="cls-1" cx="16.68" cy="25.64" r="0.2"/><circle class="cls-1" cx="18.74" cy="25.64" r="0.2"/><circle class="cls-1" cx="20.8" cy="25.64" r="0.2"/><circle class="cls-1" cx="22.86" cy="25.64" r="0.2"/><circle class="cls-1" cx="24.91" cy="25.64" r="0.2"/><circle class="cls-1" cx="26.97" cy="25.64" r="0.2"/><circle class="cls-1" cx="12.56" cy="27.49" r="0.2"/><circle class="cls-1" cx="14.62" cy="27.49" r="0.2"/><circle class="cls-1" cx="16.68" cy="27.49" r="0.2"/><circle class="cls-1" cx="18.74" cy="27.49" r="0.2"/><circle class="cls-1" cx="20.8" cy="27.49" r="0.2"/><circle class="cls-1" cx="22.86" cy="27.49" r="0.2"/><circle class="cls-1" cx="24.91" cy="27.49" r="0.2"/><circle class="cls-1" cx="26.97" cy="27.49" r="0.2"/><circle class="cls-1" cx="12.56" cy="29.44" r="0.2"/><circle class="cls-1" cx="14.62" cy="29.44" r="0.2"/><circle class="cls-1" cx="16.68" cy="29.44" r="0.2"/><circle class="cls-1" cx="18.74" cy="29.44" r="0.2"/><circle class="cls-1" cx="20.8" cy="29.44" r="0.2"/><circle class="cls-1" cx="22.86" cy="29.44" r="0.2"/><circle class="cls-1" cx="24.91" cy="29.44" r="0.2"/><circle class="cls-1" cx="26.97" cy="29.44" r="0.2"/><circle class="cls-1" cx="12.56" cy="31.39" r="0.2"/><circle class="cls-1" cx="14.62" cy="31.39" r="0.2"/><circle class="cls-1" cx="16.68" cy="31.39" r="0.2"/><circle class="cls-1" cx="18.74" cy="31.39" r="0.2"/><circle class="cls-1" cx="20.8" cy="31.39" r="0.2"/><circle class="cls-1" cx="22.86" cy="31.39" r="0.2"/><circle class="cls-1" cx="24.91" cy="31.39" r="0.2"/><circle class="cls-1" cx="26.97" cy="31.39" r="0.2"/><circle class="cls-1" cx="12.56" cy="33.34" r="0.2"/><circle class="cls-1" cx="14.62" cy="33.34" r="0.2"/><circle class="cls-1" cx="16.68" cy="33.34" r="0.2"/><circle class="cls-1" cx="18.74" cy="33.34" r="0.2"/><circle class="cls-1" cx="20.8" cy="33.34" r="0.2"/><circle class="cls-1" cx="22.86" cy="33.34" r="0.2"/><circle class="cls-1" cx="24.91" cy="33.34" r="0.2"/><circle class="cls-1" cx="26.97" cy="33.34" r="0.2"/><circle class="cls-1" cx="12.56" cy="35.29" r="0.2"/><circle class="cls-1" cx="14.62" cy="35.29" r="0.2"/><circle class="cls-1" cx="16.68" cy="35.29" r="0.2"/><circle class="cls-1" cx="18.74" cy="35.29" r="0.2"/><circle class="cls-1" cx="20.8" cy="35.29" r="0.2"/><circle class="cls-1" cx="22.86" cy="35.29" r="0.2"/><circle class="cls-1" cx="24.91" cy="35.29" r="0.2"/><circle class="cls-1" cx="26.97" cy="35.29" r="0.2"/><circle class="cls-1" cx="12.56" cy="37.24" r="0.2"/><circle class="cls-1" cx="14.62" cy="37.24" r="0.2"/><circle class="cls-1" cx="16.68" cy="37.24" r="0.2"/><circle class="cls-1" cx="18.74" cy="37.24" r="0.2"/><circle class="cls-1" cx="20.8" cy="37.24" r="0.2"/><circle class="cls-1" cx="22.86" cy="37.24" r="0.2"/><circle class="cls-1" cx="24.91" cy="37.24" r="0.2"/><circle class="cls-1" cx="26.97" cy="37.24" r="0.2"/><circle class="cls-1" cx="12.56" cy="39.19" r="0.2"/><circle class="cls-1" cx="14.62" cy="39.19" r="0.2"/><circle class="cls-1" cx="16.68" cy="39.19" r="0.2"/><circle class="cls-1" cx="18.74" cy="39.19" r="0.2"/><circle class="cls-1" cx="20.8" cy="39.19" r="0.2"/><circle class="cls-1" cx="22.86" cy="39.19" r="0.2"/><circle class="cls-1" cx="24.91" cy="39.19" r="0.2"/><circle class="cls-1" cx="26.97" cy="39.19" r="0.2"/><circle class="cls-1" cx="12.56" cy="41.14" r="0.2"/><circle class="cls-1" cx="14.62" cy="41.14" r="0.2"/><circle class="cls-1" cx="16.68" cy="41.14" r="0.2"/><circle class="cls-1" cx="18.74" cy="41.14" r="0.2"/><circle class="cls-1" cx="20.8" cy="41.14" r="0.2"/><circle class="cls-1" cx="22.86" cy="41.14" r="0.2"/><circle class="cls-1" cx="24.91" cy="41.14" r="0.2"/><circle class="cls-1" cx="26.97" cy="41.14" r="0.2"/><circle class="cls-1" cx="12.56" cy="43.09" r="0.2"/><circle class="cls-1" cx="14.62" cy="43.09" r="0.2"/><circle class="cls-1" cx="16.68" cy="43.09" r="0.2"/><circle class="cls-1" cx="18.74" cy="43.09" r="0.2"/><circle class="cls-1" cx="20.8" cy="43.09" r="0.2"/><circle class="cls-1" cx="22.86" cy="43.09" r="0.2"/><circle class="cls-1" cx="24.91" cy="43.09" r="0.2"/><circle class="cls-1" cx="26.97" cy="43.09" r="0.2"/><circle class="cls-1" cx="12.56" cy="45.04" r="0.2"/><circle class="cls-1" cx="14.62" cy="45.04" r="0.2"/><circle class="cls-1" cx="16.68" cy="45.04" r="0.2"/><circle class="cls-1" cx="18.74" cy="45.04" r="0.2"/><circle class="cls-1" cx="20.8" cy="45.04" r="0.2"/><circle class="cls-1" cx="22.86" cy="45.04" r="0.2"/><circle class="cls-1" cx="24.91" cy="45.04" r="0.2"/><circle class="cls-1" cx="26.97" cy="45.04" r="0.2"/><circle class="cls-1" cx="12.56" cy="46.98" r="0.2"/><circle class="cls-1" cx="14.62" cy="46.98" r="0.2"/><circle class="cls-1" cx="16.68" cy="46.98" r="0.2"/><circle class="cls-1" cx="18.74" cy="46.98" r="0.2"/><circle class="cls-1" cx="20.8" cy="46.98" r="0.2"/><circle class="cls-1" cx="22.86" cy="46.98" r="0.2"/><circle class="cls-1" cx="24.91" cy="46.98" r="0.2"/><circle class="cls-1" cx="26.97" cy="46.98" r="0.2"/><circle class="cls-1" cx="12.56" cy="49.04" r="0.2"/><circle class="cls-1" cx="14.62" cy="49.04" r="0.2"/><circle class="cls-1" cx="16.68" cy="49.04" r="0.2"/><circle class="cls-1" cx="18.74" cy="49.04" r="0.2"/><circle class="cls-1" cx="20.8" cy="49.04" r="0.2"/><circle class="cls-1" cx="22.86" cy="49.04" r="0.2"/><circle class="cls-1" cx="24.91" cy="49.04" r="0.2"/><circle class="cls-1" cx="26.97" cy="49.04" r="0.2"/><circle class="cls-1" cx="12.56" cy="50.99" r="0.2"/><circle class="cls-1" cx="14.62" cy="50.99" r="0.2"/><circle class="cls-1" cx="16.68" cy="50.99" r="0.2"/><circle class="cls-1" cx="18.74" cy="50.99" r="0.2"/><circle class="cls-1" cx="20.8" cy="50.99" r="0.2"/><circle class="cls-1" cx="22.86" cy="50.99" r="0.2"/><circle class="cls-1" cx="24.91" cy="50.99" r="0.2"/><circle class="cls-1" cx="26.97" cy="50.99" r="0.2"/><circle class="cls-1" cx="12.56" cy="52.93" r="0.2"/><circle class="cls-1" cx="14.62" cy="52.93" r="0.2"/><circle class="cls-1" cx="16.68" cy="52.93" r="0.2"/><circle class="cls-1" cx="18.74" cy="52.93" r="0.2"/><circle class="cls-1" cx="20.8" cy="52.93" r="0.2"/><circle class="cls-1" cx="22.86" cy="52.93" r="0.2"/><circle class="cls-1" cx="0.2" cy="0.2" r="0.2"/><circle class="cls-1" cx="2.26" cy="0.2" r="0.2"/><circle class="cls-1" cx="4.32" cy="0.2" r="0.2"/><circle class="cls-1" cx="6.38" cy="0.2" r="0.2"/><circle class="cls-1" cx="8.44" cy="0.2" r="0.2"/><circle class="cls-1" cx="10.5" cy="0.2" r="0.2"/><circle class="cls-1" cx="0.2" cy="2.15" r="0.2"/><circle class="cls-1" cx="2.26" cy="2.15" r="0.2"/><circle class="cls-1" cx="4.32" cy="2.15" r="0.2"/><circle class="cls-1" cx="6.38" cy="2.15" r="0.2"/><circle class="cls-1" cx="8.44" cy="2.15" r="0.2"/><circle class="cls-1" cx="10.5" cy="2.15" r="0.2"/><circle class="cls-1" cx="0.2" cy="4.1" r="0.2"/><circle class="cls-1" cx="2.26" cy="4.1" r="0.2"/><circle class="cls-1" cx="4.32" cy="4.1" r="0.2"/><circle class="cls-1" cx="6.38" cy="4.1" r="0.2"/><circle class="cls-1" cx="8.44" cy="4.1" r="0.2"/><circle class="cls-1" cx="10.5" cy="4.1" r="0.2"/><circle class="cls-1" cx="0.2" cy="6.05" r="0.2"/><circle class="cls-1" cx="2.26" cy="6.05" r="0.2"/><circle class="cls-1" cx="4.32" cy="6.05" r="0.2"/><circle class="cls-1" cx="6.38" cy="6.05" r="0.2"/><circle class="cls-1" cx="8.44" cy="6.05" r="0.2"/><circle class="cls-1" cx="10.5" cy="6.05" r="0.2"/><circle class="cls-1" cx="0.2" cy="8" r="0.2"/><circle class="cls-1" cx="2.26" cy="8" r="0.2"/><circle class="cls-1" cx="4.32" cy="8" r="0.2"/><circle class="cls-1" cx="6.38" cy="8" r="0.2"/><circle class="cls-1" cx="8.44" cy="8" r="0.2"/><circle class="cls-1" cx="10.5" cy="8" r="0.2"/><circle class="cls-1" cx="0.2" cy="9.95" r="0.2"/><circle class="cls-1" cx="2.26" cy="9.95" r="0.2"/><circle class="cls-1" cx="4.32" cy="9.95" r="0.2"/><circle class="cls-1" cx="6.38" cy="9.95" r="0.2"/><circle class="cls-1" cx="8.44" cy="9.95" r="0.2"/><circle class="cls-1" cx="10.5" cy="9.95" r="0.2"/><circle class="cls-1" cx="0.2" cy="11.89" r="0.2"/><circle class="cls-1" cx="2.26" cy="11.89" r="0.2"/><circle class="cls-1" cx="4.32" cy="11.89" r="0.2"/><circle class="cls-1" cx="6.38" cy="11.89" r="0.2"/><circle class="cls-1" cx="8.44" cy="11.89" r="0.2"/><circle class="cls-1" cx="10.5" cy="11.89" r="0.2"/><circle class="cls-1" cx="0.2" cy="13.84" r="0.2"/><circle class="cls-1" cx="2.26" cy="13.84" r="0.2"/><circle class="cls-1" cx="4.32" cy="13.84" r="0.2"/><circle class="cls-1" cx="6.38" cy="13.84" r="0.2"/><circle class="cls-1" cx="8.44" cy="13.84" r="0.2"/><circle class="cls-1" cx="10.5" cy="13.84" r="0.2"/><circle class="cls-1" cx="0.2" cy="15.79" r="0.2"/><circle class="cls-1" cx="2.26" cy="15.79" r="0.2"/><circle class="cls-1" cx="4.32" cy="15.79" r="0.2"/><circle class="cls-1" cx="6.38" cy="15.79" r="0.2"/><circle class="cls-1" cx="8.44" cy="15.79" r="0.2"/><circle class="cls-1" cx="10.5" cy="15.79" r="0.2"/><circle class="cls-1" cx="0.2" cy="17.74" r="0.2"/><circle class="cls-1" cx="2.26" cy="17.74" r="0.2"/><circle class="cls-1" cx="4.32" cy="17.74" r="0.2"/><circle class="cls-1" cx="6.38" cy="17.74" r="0.2"/><circle class="cls-1" cx="8.44" cy="17.74" r="0.2"/><circle class="cls-1" cx="10.5" cy="17.74" r="0.2"/><circle class="cls-1" cx="0.2" cy="19.69" r="0.2"/><circle class="cls-1" cx="2.26" cy="19.69" r="0.2"/><circle class="cls-1" cx="4.32" cy="19.69" r="0.2"/><circle class="cls-1" cx="6.38" cy="19.69" r="0.2"/><circle class="cls-1" cx="8.44" cy="19.69" r="0.2"/><circle class="cls-1" cx="10.5" cy="19.69" r="0.2"/><circle class="cls-1" cx="0.2" cy="21.74" r="0.2"/><circle class="cls-1" cx="2.26" cy="21.74" r="0.2"/><circle class="cls-1" cx="4.32" cy="21.74" r="0.2"/><circle class="cls-1" cx="6.38" cy="21.74" r="0.2"/><circle class="cls-1" cx="8.44" cy="21.74" r="0.2"/><circle class="cls-1" cx="10.5" cy="21.74" r="0.2"/><circle class="cls-1" cx="0.2" cy="23.69" r="0.2"/><circle class="cls-1" cx="2.26" cy="23.69" r="0.2"/><circle class="cls-1" cx="4.32" cy="23.69" r="0.2"/><circle class="cls-1" cx="6.38" cy="23.69" r="0.2"/><circle class="cls-1" cx="8.44" cy="23.69" r="0.2"/><circle class="cls-1" cx="10.5" cy="23.69" r="0.2"/><circle class="cls-1" cx="0.2" cy="25.64" r="0.2"/><circle class="cls-1" cx="2.26" cy="25.64" r="0.2"/><circle class="cls-1" cx="4.32" cy="25.64" r="0.2"/><circle class="cls-1" cx="6.38" cy="25.64" r="0.2"/><circle class="cls-1" cx="8.44" cy="25.64" r="0.2"/><circle class="cls-1" cx="10.5" cy="25.64" r="0.2"/><circle class="cls-1" cx="0.2" cy="27.49" r="0.2"/><circle class="cls-1" cx="2.26" cy="27.49" r="0.2"/><circle class="cls-1" cx="4.32" cy="27.49" r="0.2"/><circle class="cls-1" cx="6.38" cy="27.49" r="0.2"/><circle class="cls-1" cx="8.44" cy="27.49" r="0.2"/><circle class="cls-1" cx="10.5" cy="27.49" r="0.2"/><circle class="cls-1" cx="0.2" cy="29.44" r="0.2"/><circle class="cls-1" cx="2.26" cy="29.44" r="0.2"/><circle class="cls-1" cx="4.32" cy="29.44" r="0.2"/><circle class="cls-1" cx="6.38" cy="29.44" r="0.2"/><circle class="cls-1" cx="8.44" cy="29.44" r="0.2"/><circle class="cls-1" cx="10.5" cy="29.44" r="0.2"/><circle class="cls-1" cx="0.2" cy="31.39" r="0.2"/><circle class="cls-1" cx="2.26" cy="31.39" r="0.2"/><circle class="cls-1" cx="4.32" cy="31.39" r="0.2"/><circle class="cls-1" cx="6.38" cy="31.39" r="0.2"/><circle class="cls-1" cx="8.44" cy="31.39" r="0.2"/><circle class="cls-1" cx="10.5" cy="31.39" r="0.2"/><circle class="cls-1" cx="0.2" cy="33.34" r="0.2"/><circle class="cls-1" cx="2.26" cy="33.34" r="0.2"/><circle class="cls-1" cx="4.32" cy="33.34" r="0.2"/><circle class="cls-1" cx="6.38" cy="33.34" r="0.2"/><circle class="cls-1" cx="8.44" cy="33.34" r="0.2"/><circle class="cls-1" cx="10.5" cy="33.34" r="0.2"/><circle class="cls-1" cx="0.2" cy="35.29" r="0.2"/><circle class="cls-1" cx="2.26" cy="35.29" r="0.2"/><circle class="cls-1" cx="4.32" cy="35.29" r="0.2"/><circle class="cls-1" cx="6.38" cy="35.29" r="0.2"/><circle class="cls-1" cx="8.44" cy="35.29" r="0.2"/><circle class="cls-1" cx="10.5" cy="35.29" r="0.2"/><circle class="cls-1" cx="0.2" cy="37.24" r="0.2"/><circle class="cls-1" cx="2.26" cy="37.24" r="0.2"/><circle class="cls-1" cx="4.32" cy="37.24" r="0.2"/><circle class="cls-1" cx="6.38" cy="37.24" r="0.2"/><circle class="cls-1" cx="8.44" cy="37.24" r="0.2"/><circle class="cls-1" cx="10.5" cy="37.24" r="0.2"/><circle class="cls-1" cx="0.2" cy="39.19" r="0.2"/><circle class="cls-1" cx="2.26" cy="39.19" r="0.2"/><circle class="cls-1" cx="4.32" cy="39.19" r="0.2"/><circle class="cls-1" cx="6.38" cy="39.19" r="0.2"/><circle class="cls-1" cx="8.44" cy="39.19" r="0.2"/><circle class="cls-1" cx="10.5" cy="39.19" r="0.2"/><circle class="cls-1" cx="0.2" cy="41.14" r="0.2"/><circle class="cls-1" cx="2.26" cy="41.14" r="0.2"/><circle class="cls-1" cx="4.32" cy="41.14" r="0.2"/><circle class="cls-1" cx="6.38" cy="41.14" r="0.2"/><circle class="cls-1" cx="8.44" cy="41.14" r="0.2"/><circle class="cls-1" cx="10.5" cy="41.14" r="0.2"/><circle class="cls-1" cx="0.2" cy="43.09" r="0.2"/><circle class="cls-1" cx="2.26" cy="43.09" r="0.2"/><circle class="cls-1" cx="4.32" cy="43.09" r="0.2"/><circle class="cls-1" cx="6.38" cy="43.09" r="0.2"/><circle class="cls-1" cx="8.44" cy="43.09" r="0.2"/><circle class="cls-1" cx="10.5" cy="43.09" r="0.2"/><circle class="cls-1" cx="0.2" cy="45.04" r="0.2"/><circle class="cls-1" cx="2.26" cy="45.04" r="0.2"/><circle class="cls-1" cx="4.32" cy="45.04" r="0.2"/><circle class="cls-1" cx="6.38" cy="45.04" r="0.2"/><circle class="cls-1" cx="8.44" cy="45.04" r="0.2"/><circle class="cls-1" cx="10.5" cy="45.04" r="0.2"/><circle class="cls-1" cx="0.2" cy="46.98" r="0.2"/><circle class="cls-1" cx="2.26" cy="46.98" r="0.2"/><circle class="cls-1" cx="4.32" cy="46.98" r="0.2"/><circle class="cls-1" cx="6.38" cy="46.98" r="0.2"/><circle class="cls-1" cx="8.44" cy="46.98" r="0.2"/><circle class="cls-1" cx="10.5" cy="46.98" r="0.2"/><circle class="cls-1" cx="0.2" cy="49.04" r="0.2"/><circle class="cls-1" cx="2.26" cy="49.04" r="0.2"/><circle class="cls-1" cx="4.32" cy="49.04" r="0.2"/><circle class="cls-1" cx="6.38" cy="49.04" r="0.2"/><circle class="cls-1" cx="8.44" cy="49.04" r="0.2"/><circle class="cls-1" cx="10.5" cy="49.04" r="0.2"/><circle class="cls-1" cx="0.2" cy="50.99" r="0.2"/><circle class="cls-1" cx="2.26" cy="50.99" r="0.2"/><circle class="cls-1" cx="4.32" cy="50.99" r="0.2"/><circle class="cls-1" cx="6.38" cy="50.99" r="0.2"/><circle class="cls-1" cx="8.44" cy="50.99" r="0.2"/><circle class="cls-1" cx="10.5" cy="50.99" r="0.2"/><circle class="cls-1" cx="0.2" cy="52.93" r="0.2"/><circle class="cls-1" cx="2.26" cy="52.93" r="0.2"/><circle class="cls-1" cx="4.32" cy="52.93" r="0.2"/><circle class="cls-1" cx="6.38" cy="52.93" r="0.2"/><circle class="cls-1" cx="8.44" cy="52.93" r="0.2"/><circle class="cls-1" cx="10.5" cy="52.93" r="0.2"/><circle class="cls-1" cx="24.91" cy="52.93" r="0.2"/><circle class="cls-1" cx="26.97" cy="52.93" r="0.2"/></svg>