<svg id="Layer_1" data-name="Layer 1" xmlns="http://www.w3.org/2000/svg" viewBox="0 0 125.21 56"><defs><style>.cls-1{fill:#c6993b;}.cls-2{fill:#513417;}.cls-3{fill:#fff;}</style></defs><title>logo</title><path class="cls-1" d="M18.7,70.1a1,1,0,0,1-.67-.21.75.75,0,0,1-.26-.62.9.9,0,0,1,.11-.41,4.19,4.19,0,0,1,.4-.55l0,0-.07-.06.06-.06.25-.31.06-.07.07.06.46.43a2.33,2.33,0,0,1,.3.35,1.22,1.22,0,0,1,.19.32,1.13,1.13,0,0,1,.05.32.78.78,0,0,1-.26.62,1,1,0,0,1-.67.21m-.82-2.84.39-.4.39.4-.39.39Zm.46,2a.23.23,0,0,0,.08.19.63.63,0,0,0,.28,0,.58.58,0,0,0,.28,0,.22.22,0,0,0,.07-.19A.5.5,0,0,0,19,69a1.89,1.89,0,0,0-.28-.33,2.93,2.93,0,0,0-.21.27,1.19,1.19,0,0,0-.1.17.26.26,0,0,0,0,.11m.38-2,.39-.4.39.4,0,0-.16.16-.2.2Z" transform="translate(10.61 -20)"/><path class="cls-1" d="M21,70.1h-.11a.83.83,0,0,1-.63-.25,1.09,1.09,0,0,1-.21-.71V67h.56v2.13a.44.44,0,0,0,.07.27.26.26,0,0,0,.22.08H21s0,0,0,.1a1.37,1.37,0,0,1,0,.19v0a1.36,1.36,0,0,1,0,.2c0,.06,0,.1,0,.1" transform="translate(10.61 -20)"/><path class="cls-1" d="M21.55,69.49s0,0,0,.1a1.28,1.28,0,0,1,0,.19v0a1.34,1.34,0,0,1,0,.2c0,.06,0,.1,0,.1h-.61s0,0,0-.1a1.34,1.34,0,0,1,0-.2v0a1.28,1.28,0,0,1,0-.19c0-.06,0-.1,0-.1Z" transform="translate(10.61 -20)"/><path class="cls-1" d="M22.12,69.49s0,0,.05.1a1.28,1.28,0,0,1,0,.19v0a1.34,1.34,0,0,1,0,.2c0,.06,0,.1-.05.1h-.6s0,0,0-.1a1.36,1.36,0,0,1,0-.2v0a1.37,1.37,0,0,1,0-.19c0-.06,0-.1,0-.1Z" transform="translate(10.61 -20)"/><path class="cls-1" d="M22.7,69.49s0,0,.05.1a1.28,1.28,0,0,1,0,.19v0a1.34,1.34,0,0,1,0,.2c0,.06,0,.1-.05.1h-.6s0,0,0-.1a1.36,1.36,0,0,1,0-.2v0a1.37,1.37,0,0,1,0-.19c0-.06,0-.1,0-.1Z" transform="translate(10.61 -20)"/><path class="cls-1" d="M23.28,69.49s0,0,0,.1a1.37,1.37,0,0,1,0,.19v0a1.36,1.36,0,0,1,0,.2c0,.06,0,.1,0,.1h-.6s0,0,0-.1a1.36,1.36,0,0,1,0-.2v0a1.37,1.37,0,0,1,0-.19c0-.06,0-.1,0-.1Z" transform="translate(10.61 -20)"/><path class="cls-1" d="M23.86,69.49s0,0,0,.1a1.37,1.37,0,0,1,0,.19v0a1.36,1.36,0,0,1,0,.2c0,.06,0,.1,0,.1h-.6s0,0,0-.1a1.36,1.36,0,0,1,0-.2v0a1.37,1.37,0,0,1,0-.19c0-.06,0-.1,0-.1Z" transform="translate(10.61 -20)"/><path class="cls-1" d="M24.44,69.49s0,0,0,.1a1.37,1.37,0,0,1,0,.19v0a1.36,1.36,0,0,1,0,.2c0,.06,0,.1,0,.1h-.6s0,0-.05-.1a1.34,1.34,0,0,1,0-.2v0a1.28,1.28,0,0,1,0-.19c0-.06,0-.1.05-.1Z" transform="translate(10.61 -20)"/><path class="cls-1" d="M25,69.49s0,0,0,.1a1.37,1.37,0,0,1,0,.19v0a1.36,1.36,0,0,1,0,.2c0,.06,0,.1,0,.1h-.6s0,0-.05-.1a1.34,1.34,0,0,1,0-.2v0a1.28,1.28,0,0,1,0-.19c0-.06,0-.1.05-.1Z" transform="translate(10.61 -20)"/><path class="cls-1" d="M25.6,69.49s0,0,0,.1a1.37,1.37,0,0,1,0,.19v0a1.36,1.36,0,0,1,0,.2c0,.06,0,.1,0,.1H25s0,0-.05-.1a1.34,1.34,0,0,1,0-.2v0a1.28,1.28,0,0,1,0-.19c0-.06,0-.1.05-.1Z" transform="translate(10.61 -20)"/><path class="cls-1" d="M26.18,69.49s0,0,0,.1a1.28,1.28,0,0,1,0,.19v0a1.34,1.34,0,0,1,0,.2c0,.06,0,.1,0,.1h-.61s0,0,0-.1a1.34,1.34,0,0,1,0-.2v0a1.28,1.28,0,0,1,0-.19c0-.06,0-.1,0-.1Z" transform="translate(10.61 -20)"/><path class="cls-1" d="M26.75,69.49s0,0,.05.1a1.28,1.28,0,0,1,0,.19v0a1.34,1.34,0,0,1,0,.2c0,.06,0,.1-.05.1h-.6s0,0,0-.1a1.34,1.34,0,0,1,0-.2v0a1.28,1.28,0,0,1,0-.19c0-.06,0-.1,0-.1Z" transform="translate(10.61 -20)"/><path class="cls-1" d="M27.33,69.49s0,0,.05.1a1.28,1.28,0,0,1,0,.19v0a1.34,1.34,0,0,1,0,.2c0,.06,0,.1-.05.1h-.6s0,0,0-.1a1.36,1.36,0,0,1,0-.2v0a1.37,1.37,0,0,1,0-.19c0-.06,0-.1,0-.1Z" transform="translate(10.61 -20)"/><path class="cls-1" d="M27.91,69.49s0,0,.05.1a1.28,1.28,0,0,1,0,.19v0a1.34,1.34,0,0,1,0,.2c0,.06,0,.1-.05.1h-.6s0,0,0-.1a1.36,1.36,0,0,1,0-.2v0a1.37,1.37,0,0,1,0-.19c0-.06,0-.1,0-.1Z" transform="translate(10.61 -20)"/><path class="cls-1" d="M28.49,69.49s0,0,0,.1a1.37,1.37,0,0,1,0,.19v0a1.36,1.36,0,0,1,0,.2c0,.06,0,.1,0,.1h-.6s0,0,0-.1a1.36,1.36,0,0,1,0-.2v0a1.37,1.37,0,0,1,0-.19c0-.06,0-.1,0-.1Z" transform="translate(10.61 -20)"/><path class="cls-1" d="M29.07,69.49s0,0,0,.1a1.37,1.37,0,0,1,0,.19v0a1.36,1.36,0,0,1,0,.2c0,.06,0,.1,0,.1h-.6s0,0,0-.1a1.36,1.36,0,0,1,0-.2v0a1.37,1.37,0,0,1,0-.19c0-.06,0-.1,0-.1Z" transform="translate(10.61 -20)"/><path class="cls-1" d="M29.65,69.49s0,0,0,.1a1.37,1.37,0,0,1,0,.19v0a1.36,1.36,0,0,1,0,.2c0,.06,0,.1,0,.1h-.6s0,0-.05-.1a1.34,1.34,0,0,1,0-.2v0a1.28,1.28,0,0,1,0-.19c0-.06,0-.1.05-.1Z" transform="translate(10.61 -20)"/><path class="cls-1" d="M30.23,69.49s0,0,0,.1a1.37,1.37,0,0,1,0,.19v0a1.36,1.36,0,0,1,0,.2c0,.06,0,.1,0,.1h-.6s0,0-.05-.1a1.34,1.34,0,0,1,0-.2v0a1.28,1.28,0,0,1,0-.19c0-.06,0-.1.05-.1Z" transform="translate(10.61 -20)"/><path class="cls-1" d="M30.81,69.49s0,0,0,.1a1.28,1.28,0,0,1,0,.19v0a1.34,1.34,0,0,1,0,.2c0,.06,0,.1,0,.1H30.2s0,0,0-.1a1.34,1.34,0,0,1,0-.2v0a1.28,1.28,0,0,1,0-.19c0-.06,0-.1,0-.1Z" transform="translate(10.61 -20)"/><path class="cls-1" d="M31.39,69.49s0,0,0,.1a1.28,1.28,0,0,1,0,.19v0a1.34,1.34,0,0,1,0,.2c0,.06,0,.1,0,.1h-.61s0,0,0-.1a1.34,1.34,0,0,1,0-.2v0a1.28,1.28,0,0,1,0-.19c0-.06,0-.1,0-.1Z" transform="translate(10.61 -20)"/><path class="cls-1" d="M32,69.49s0,0,0,.1a1.28,1.28,0,0,1,0,.19v0a1.34,1.34,0,0,1,0,.2c0,.06,0,.1,0,.1h-.6s0,0,0-.1a1.36,1.36,0,0,1,0-.2v0a1.37,1.37,0,0,1,0-.19c0-.06,0-.1,0-.1Z" transform="translate(10.61 -20)"/><path class="cls-1" d="M32.54,69.49s0,0,.05.1a1.28,1.28,0,0,1,0,.19v0a1.34,1.34,0,0,1,0,.2c0,.06,0,.1-.05.1h-.6s0,0,0-.1a1.36,1.36,0,0,1,0-.2v0a1.37,1.37,0,0,1,0-.19c0-.06,0-.1,0-.1Z" transform="translate(10.61 -20)"/><path class="cls-1" d="M33.12,69.49s0,0,0,.1a1.37,1.37,0,0,1,0,.19v0a1.36,1.36,0,0,1,0,.2c0,.06,0,.1,0,.1h-.6s0,0,0-.1a1.36,1.36,0,0,1,0-.2v0a1.37,1.37,0,0,1,0-.19c0-.06,0-.1,0-.1Z" transform="translate(10.61 -20)"/><path class="cls-1" d="M33.7,69.49s0,0,0,.1a1.37,1.37,0,0,1,0,.19v0a1.36,1.36,0,0,1,0,.2c0,.06,0,.1,0,.1h-.6s0,0,0-.1a1.36,1.36,0,0,1,0-.2v0a1.37,1.37,0,0,1,0-.19c0-.06,0-.1,0-.1Z" transform="translate(10.61 -20)"/><path class="cls-1" d="M34.28,69.49s0,0,0,.1a1.37,1.37,0,0,1,0,.19v0a1.36,1.36,0,0,1,0,.2c0,.06,0,.1,0,.1h-.6s0,0,0-.1a1.34,1.34,0,0,1,0-.2v0a1.28,1.28,0,0,1,0-.19c0-.06,0-.1,0-.1Z" transform="translate(10.61 -20)"/><path class="cls-1" d="M34.86,69.49s0,0,0,.1a1.37,1.37,0,0,1,0,.19v0a1.36,1.36,0,0,1,0,.2c0,.06,0,.1,0,.1h-.6s0,0,0-.1a1.34,1.34,0,0,1,0-.2v0a1.28,1.28,0,0,1,0-.19c0-.06,0-.1,0-.1Z" transform="translate(10.61 -20)"/><path class="cls-1" d="M35.44,69.49s0,0,0,.1a1.28,1.28,0,0,1,0,.19v0a1.34,1.34,0,0,1,0,.2c0,.06,0,.1,0,.1h-.61s0,0,0-.1a1.34,1.34,0,0,1,0-.2v0a1.28,1.28,0,0,1,0-.19c0-.06,0-.1,0-.1Z" transform="translate(10.61 -20)"/><path class="cls-1" d="M36,69.49s0,0,0,.1a1.28,1.28,0,0,1,0,.19v0a1.34,1.34,0,0,1,0,.2c0,.06,0,.1,0,.1h-.61s0,0,0-.1a1.34,1.34,0,0,1,0-.2v0a1.28,1.28,0,0,1,0-.19c0-.06,0-.1,0-.1Z" transform="translate(10.61 -20)"/><path class="cls-1" d="M36.59,69.49s0,0,0,.1a1.28,1.28,0,0,1,0,.19v0a1.34,1.34,0,0,1,0,.2c0,.06,0,.1,0,.1H36s0,0,0-.1a1.36,1.36,0,0,1,0-.2v0a1.37,1.37,0,0,1,0-.19c0-.06,0-.1,0-.1Z" transform="translate(10.61 -20)"/><path class="cls-1" d="M37.17,69.49s0,0,0,.1a1.28,1.28,0,0,1,0,.19v0a1.34,1.34,0,0,1,0,.2c0,.06,0,.1,0,.1h-.6s0,0,0-.1a1.36,1.36,0,0,1,0-.2v0a1.37,1.37,0,0,1,0-.19c0-.06,0-.1,0-.1Z" transform="translate(10.61 -20)"/><path class="cls-1" d="M37.75,69.49s0,0,0,.1a1.37,1.37,0,0,1,0,.19v0a1.36,1.36,0,0,1,0,.2c0,.06,0,.1,0,.1h-.6s0,0,0-.1a1.36,1.36,0,0,1,0-.2v0a1.37,1.37,0,0,1,0-.19c0-.06,0-.1,0-.1Z" transform="translate(10.61 -20)"/><path class="cls-1" d="M38.33,69.49s0,0,0,.1a1.37,1.37,0,0,1,0,.19v0a1.36,1.36,0,0,1,0,.2c0,.06,0,.1,0,.1h-.6s0,0,0-.1a1.36,1.36,0,0,1,0-.2v0a1.37,1.37,0,0,1,0-.19c0-.06,0-.1,0-.1Z" transform="translate(10.61 -20)"/><path class="cls-1" d="M38.31,69.49h.38l.06,0a.11.11,0,0,0,0-.06,1.86,1.86,0,0,0,0-.26A1.08,1.08,0,0,1,39,68.4a.94.94,0,0,1,1.28,0,1.29,1.29,0,0,1,0,1.47.83.83,0,0,1-.65.26.86.86,0,0,1-.58-.19.75.75,0,0,1-.5.16h-.23s0,0-.05-.1a1.34,1.34,0,0,1,0-.2v0a1.28,1.28,0,0,1,0-.19c0-.06,0-.1.05-.1m1.1,0a.27.27,0,0,0,.22.09.26.26,0,0,0,.21-.09.54.54,0,0,0,.07-.32.56.56,0,0,0-.06-.3.26.26,0,0,0-.22-.08.25.25,0,0,0-.22.08.47.47,0,0,0-.07.3.54.54,0,0,0,.07.32" transform="translate(10.61 -20)"/><path class="cls-1" d="M41.84,70.1h-.1a.8.8,0,0,1-.63-.25,1,1,0,0,1-.22-.71V67h.57v2.13a.38.38,0,0,0,.07.27.23.23,0,0,0,.21.08h.1s0,0,0,.1a.65.65,0,0,1,0,.19v0a1.34,1.34,0,0,1,0,.2c0,.06,0,.1,0,.1" transform="translate(10.61 -20)"/><path class="cls-1" d="M45,70.1h-.27a.9.9,0,0,1-.78-.4l-.2.11a2.3,2.3,0,0,1-1.14.29h-.75s0,0,0-.1a1.34,1.34,0,0,1,0-.2v0a1.37,1.37,0,0,1,0-.19c0-.06,0-.1,0-.1h.75a1.75,1.75,0,0,0,.85-.2l.51-.24-.31-.17a1,1,0,0,0-.51-.16.56.56,0,0,0-.23,0,1.48,1.48,0,0,0-.25.15l-.16.13-.07.06L42.34,69l-.26-.3L42,68.67l.08-.06.14-.12a1.65,1.65,0,0,1,.43-.28,1,1,0,0,1,.44-.1,1.38,1.38,0,0,1,.7.21l.44.25a1.16,1.16,0,0,0,.41.16l.08,0v.55l-.06,0-.24.12a.49.49,0,0,0,.25,0H45s0,0,0,.1a1.28,1.28,0,0,1,0,.19v0a1.34,1.34,0,0,1,0,.2c0,.06,0,.1,0,.1" transform="translate(10.61 -20)"/><path class="cls-1" d="M47.42,70.1h-.07a.82.82,0,0,1-.51-.16.9.9,0,0,1-.58.19.85.85,0,0,1-.58-.19.77.77,0,0,1-.5.16h-.24s0,0,0-.1a1.36,1.36,0,0,1,0-.2v0a1.37,1.37,0,0,1,0-.19c0-.06,0-.1,0-.1h.38l.06,0s0,0,0-.06a1.86,1.86,0,0,0,0-.26,1.13,1.13,0,0,1,.22-.73.8.8,0,0,1,.64-.25.82.82,0,0,1,.65.25,1.09,1.09,0,0,1,.22.74.57.57,0,0,1,0,.12s0,.08,0,.11a.12.12,0,0,1,0,0s0,0,0,0l.07,0h.23s0,0,0,.1a1.37,1.37,0,0,1,0,.19v0a1.36,1.36,0,0,1,0,.2c0,.06,0,.1,0,.1m-1.37-.65a.23.23,0,0,0,.21.09.27.27,0,0,0,.22-.09.63.63,0,0,0,.07-.32.55.55,0,0,0-.07-.3.34.34,0,0,0-.44,0,.55.55,0,0,0-.07.3.54.54,0,0,0,.08.32" transform="translate(10.61 -20)"/><path class="cls-1" d="M49,70.1h-.06a.82.82,0,0,1-.62-.26A.7.7,0,0,1,48,70a.86.86,0,0,1-.36.07h-.27s0,0,0-.1a1.34,1.34,0,0,1,0-.2v0a1.28,1.28,0,0,1,0-.19c0-.06,0-.1,0-.1h.27a.44.44,0,0,0,.29-.07.35.35,0,0,0,.09-.27V67h.57v2.14a.38.38,0,0,0,.07.27.39.39,0,0,0,.28.07h0s0,0,0,.1a.65.65,0,0,1,0,.19v0a1.34,1.34,0,0,1,0,.2c0,.06,0,.1,0,.1" transform="translate(10.61 -20)"/><path class="cls-1" d="M49,69.49h.28a.3.3,0,0,0,.36-.35V67h.57v2.13a1,1,0,0,1-.24.71.94.94,0,0,1-.69.25H49s0,0,0-.1a1.36,1.36,0,0,1,0-.2v0a1.37,1.37,0,0,1,0-.19c0-.06,0-.1,0-.1" transform="translate(10.61 -20)"/><path class="cls-1" d="M18.86,74h1.91a.46.46,0,0,0,.37-.13.54.54,0,0,0,.12-.39v-.55h.59v.54a1.18,1.18,0,0,1-.28.84,1.07,1.07,0,0,1-.81.29H18.87a1.11,1.11,0,0,1-.82-.29,1.13,1.13,0,0,1-.29-.83v-.56h.59v.56a.45.45,0,0,0,.51.52M19,72.53l.4-.39.38.39-.38.39Zm.84,0,.39-.39.39.39,0,0-.16.16-.2.2Z" transform="translate(10.61 -20)"/><polygon class="cls-1" points="32.94 51.51 33.32 51.51 33.41 51.51 33.41 51.6 33.41 54.5 33.41 54.59 33.32 54.59 32.94 54.59 32.84 54.59 32.84 54.5 32.84 51.6 32.84 51.51 32.94 51.51"/><path class="cls-1" d="M22.87,75.09c.55,0,.82-.25.82-.75V73h.59v1.33a1.27,1.27,0,0,1-.37,1,1.41,1.41,0,0,1-1,.36h-.26v-.6h.26Z" transform="translate(10.61 -20)"/><path class="cls-1" d="M25.63,74.6h-.11a.83.83,0,0,1-.63-.25,1.07,1.07,0,0,1-.21-.71V71.51h.57v2.13a.45.45,0,0,0,.06.27.27.27,0,0,0,.22.09h.1s0,0,0,.09a1.37,1.37,0,0,1,0,.19v0a1.37,1.37,0,0,1,0,.19c0,.06,0,.1,0,.1" transform="translate(10.61 -20)"/><path class="cls-1" d="M26.21,74s0,0,0,.09a1.28,1.28,0,0,1,0,.19v0a1.28,1.28,0,0,1,0,.19c0,.07,0,.1,0,.1H25.6s0,0,0-.1a1.28,1.28,0,0,1,0-.19v0a1.28,1.28,0,0,1,0-.19c0-.06,0-.09,0-.09Z" transform="translate(10.61 -20)"/><path class="cls-1" d="M26.79,74s0,0,0,.09a1.28,1.28,0,0,1,0,.19v0a1.28,1.28,0,0,1,0,.19c0,.07,0,.1,0,.1h-.61s0,0,0-.1a1.28,1.28,0,0,1,0-.19v0a1.28,1.28,0,0,1,0-.19c0-.06,0-.09,0-.09Z" transform="translate(10.61 -20)"/><path class="cls-1" d="M27.36,74s0,0,.05.09a1.28,1.28,0,0,1,0,.19v0a1.28,1.28,0,0,1,0,.19c0,.07,0,.1-.05.1h-.6s0,0,0-.1a1.37,1.37,0,0,1,0-.19v0a1.37,1.37,0,0,1,0-.19c0-.06,0-.09,0-.09Z" transform="translate(10.61 -20)"/><path class="cls-1" d="M27.94,74s0,0,0,.09a1.28,1.28,0,0,1,0,.19v0a1.28,1.28,0,0,1,0,.19c0,.07,0,.1,0,.1h-.6s0,0,0-.1a1.37,1.37,0,0,1,0-.19v0a1.37,1.37,0,0,1,0-.19c0-.06,0-.09,0-.09Z" transform="translate(10.61 -20)"/><path class="cls-1" d="M28.52,74s0,0,0,.09a1.37,1.37,0,0,1,0,.19v0a1.37,1.37,0,0,1,0,.19c0,.07,0,.1,0,.1h-.6s0,0,0-.1a1.37,1.37,0,0,1,0-.19v0a1.37,1.37,0,0,1,0-.19c0-.06,0-.09,0-.09Z" transform="translate(10.61 -20)"/><path class="cls-1" d="M29.1,74s0,0,0,.09a1.37,1.37,0,0,1,0,.19v0a1.37,1.37,0,0,1,0,.19c0,.07,0,.1,0,.1h-.6s0,0,0-.1a1.37,1.37,0,0,1,0-.19v0a1.37,1.37,0,0,1,0-.19c0-.06,0-.09,0-.09Z" transform="translate(10.61 -20)"/><path class="cls-1" d="M29.68,74s0,0,0,.09a1.37,1.37,0,0,1,0,.19v0a1.37,1.37,0,0,1,0,.19c0,.07,0,.1,0,.1h-.6s0,0,0-.1a1.28,1.28,0,0,1,0-.19v0a1.28,1.28,0,0,1,0-.19c0-.06,0-.09,0-.09Z" transform="translate(10.61 -20)"/><path class="cls-1" d="M30.26,74s0,0,0,.09a1.37,1.37,0,0,1,0,.19v0a1.37,1.37,0,0,1,0,.19c0,.07,0,.1,0,.1h-.6s0,0-.05-.1a1.28,1.28,0,0,1,0-.19v0a1.28,1.28,0,0,1,0-.19c0-.06,0-.09.05-.09Z" transform="translate(10.61 -20)"/><path class="cls-1" d="M30.84,74s0,0,0,.09a1.28,1.28,0,0,1,0,.19v0a1.28,1.28,0,0,1,0,.19c0,.07,0,.1,0,.1h-.61s0,0,0-.1a1.28,1.28,0,0,1,0-.19v0a1.28,1.28,0,0,1,0-.19c0-.06,0-.09,0-.09Z" transform="translate(10.61 -20)"/><path class="cls-1" d="M31.42,74s0,0,0,.09a1.28,1.28,0,0,1,0,.19v0a1.28,1.28,0,0,1,0,.19c0,.07,0,.1,0,.1h-.61s0,0,0-.1a1.28,1.28,0,0,1,0-.19v0a1.28,1.28,0,0,1,0-.19c0-.06,0-.09,0-.09Z" transform="translate(10.61 -20)"/><path class="cls-1" d="M32,74s0,0,.05.09a1.28,1.28,0,0,1,0,.19v0a1.28,1.28,0,0,1,0,.19c0,.07,0,.1-.05.1h-.6s0,0,0-.1a1.37,1.37,0,0,1,0-.19v0a1.37,1.37,0,0,1,0-.19c0-.06,0-.09,0-.09Z" transform="translate(10.61 -20)"/><path class="cls-1" d="M32.57,74s0,0,0,.09a1.28,1.28,0,0,1,0,.19v0a1.28,1.28,0,0,1,0,.19c0,.07,0,.1,0,.1H32s0,0,0-.1a1.37,1.37,0,0,1,0-.19v0a1.37,1.37,0,0,1,0-.19c0-.06,0-.09,0-.09Z" transform="translate(10.61 -20)"/><path class="cls-1" d="M33.15,74s0,0,0,.09a1.37,1.37,0,0,1,0,.19v0a1.37,1.37,0,0,1,0,.19c0,.07,0,.1,0,.1h-.6s0,0,0-.1a1.37,1.37,0,0,1,0-.19v0a1.37,1.37,0,0,1,0-.19c0-.06,0-.09,0-.09Z" transform="translate(10.61 -20)"/><path class="cls-1" d="M33.73,74s0,0,0,.09a1.37,1.37,0,0,1,0,.19v0a1.37,1.37,0,0,1,0,.19c0,.07,0,.1,0,.1h-.6s0,0,0-.1a1.37,1.37,0,0,1,0-.19v0a1.37,1.37,0,0,1,0-.19c0-.06,0-.09,0-.09Z" transform="translate(10.61 -20)"/><path class="cls-1" d="M34.31,74s0,0,0,.09a1.37,1.37,0,0,1,0,.19v0a1.37,1.37,0,0,1,0,.19c0,.07,0,.1,0,.1h-.6s0,0-.05-.1a1.28,1.28,0,0,1,0-.19v0a1.28,1.28,0,0,1,0-.19c0-.06,0-.09.05-.09Z" transform="translate(10.61 -20)"/><path class="cls-1" d="M34.89,74s0,0,0,.09a1.37,1.37,0,0,1,0,.19v0a1.37,1.37,0,0,1,0,.19c0,.07,0,.1,0,.1h-.6s0,0,0-.1a1.28,1.28,0,0,1,0-.19v0a1.28,1.28,0,0,1,0-.19c0-.06,0-.09,0-.09Z" transform="translate(10.61 -20)"/><path class="cls-1" d="M39,74.6h0a.94.94,0,0,1-.71-.26.65.65,0,0,1-.55.26.79.79,0,0,1-.62-.26.79.79,0,0,1-.63.26.77.77,0,0,1-.62-.27,1,1,0,0,1-.76.27h-.21s0,0,0-.1a1.28,1.28,0,0,1,0-.19v0a1.28,1.28,0,0,1,0-.19c0-.06,0-.09,0-.09h.22a.51.51,0,0,0,.34-.09.31.31,0,0,0,.11-.27v-.7h.58v.7a.43.43,0,0,0,.08.27.34.34,0,0,0,.26.09.49.49,0,0,0,.19,0,.18.18,0,0,0,.1-.11.41.41,0,0,0,0-.21v-.7h.58v.7a.38.38,0,0,0,.08.27.33.33,0,0,0,.26.08.25.25,0,0,0,.13,0,.16.16,0,0,0,.08-.11.58.58,0,0,0,0-.21v-.7h.57v.69a.34.34,0,0,0,.1.28A.45.45,0,0,0,39,74H39s0,0,.05.09a1.28,1.28,0,0,1,0,.19v0a1.28,1.28,0,0,1,0,.19c0,.07,0,.1-.05.1m-2.8-2.38.38-.38.37.38-.37.36Zm.43-.58.37-.36.37.36L37,72Zm.42.58.37-.38.37.38-.37.36Z" transform="translate(10.61 -20)"/><path class="cls-1" d="M41,74.6h0a.84.84,0,0,1-.67-.26,1.05,1.05,0,0,1-.77.26H39s0,0,0-.1a1.37,1.37,0,0,1,0-.19v0a1.37,1.37,0,0,1,0-.19C39,74,39,74,39,74h.57a.54.54,0,0,0,.36-.09.31.31,0,0,0,.1-.27V73h.58v.69a.43.43,0,0,0,.08.28A.48.48,0,0,0,41,74h0s0,0,0,.09a1.37,1.37,0,0,1,0,.19v0a1.37,1.37,0,0,1,0,.19c0,.06,0,.1,0,.1m-2-2.42.39-.39.39.39-.39.39Zm.84,0,.39-.39.39.39,0,0-.16.16c-.09.09-.16.15-.2.2Z" transform="translate(10.61 -20)"/><path class="cls-1" d="M41,74h.22a.54.54,0,0,0,.35-.09.33.33,0,0,0,.1-.27v-.7h.59v.7a.38.38,0,0,0,.08.27.33.33,0,0,0,.26.09.33.33,0,0,0,.25-.09.38.38,0,0,0,.07-.27v-.7h.57v.7a.38.38,0,0,0,.07.27.33.33,0,0,0,.25.08.22.22,0,0,0,.19-.07.45.45,0,0,0,.06-.27v-.78h.59v.79a1,1,0,0,1-.22.69.78.78,0,0,1-.6.25.76.76,0,0,1-.62-.26.81.81,0,0,1-.64.26.78.78,0,0,1-.62-.27,1,1,0,0,1-.75.27H41s0,0,0-.1a1.37,1.37,0,0,1,0-.19v0a1.37,1.37,0,0,1,0-.19C41,74,41,74,41,74" transform="translate(10.61 -20)"/><path class="cls-1" d="M45,75.65a.42.42,0,0,1-.11-.16.66.66,0,0,1,0-.21.5.5,0,0,1,.15-.37.55.55,0,0,1,.38-.13h.12l.11,0,.1.05h0v.32l0,0-.09,0-.09,0h-.09c-.17,0-.26.06-.26.2a.19.19,0,0,0,0,.08.13.13,0,0,0,.06.07l.11.06h0l.17,0,.14,0h0v.31h0l-.92.22h0v-.29h0Zm2.21-2.05a1,1,0,0,1-.25.74,1,1,0,0,1-.72.26H45.1V74h1.18a.38.38,0,0,0,.3-.11.48.48,0,0,0,.09-.33v-2h.57V73.6Zm-2-2h.47v2.23h-.56V71.62Z" transform="translate(10.61 -20)"/><polygon class="cls-1" points="58.43 51.51 58.81 51.51 58.91 51.51 58.91 51.6 58.91 54.5 58.91 54.59 58.81 54.59 58.43 54.59 58.34 54.59 58.34 54.5 58.34 51.6 58.34 51.51 58.43 51.51"/><path class="cls-1" d="M50.44,73.7v.81a1.07,1.07,0,0,1-.38.86,1.64,1.64,0,0,1-1.05.31h-.27v-.59H49c.53,0,.82-.17.86-.49h-.27a.94.94,0,0,1-.67-.23.89.89,0,0,1-.23-.65,1.23,1.23,0,0,1,.06-.39A.92.92,0,0,1,48.9,73a.78.78,0,0,1,.29-.21.93.93,0,0,1,.39-.08.77.77,0,0,1,.63.27,1.05,1.05,0,0,1,.23.7m-1.19,0a.32.32,0,0,0,.07.22.43.43,0,0,0,.26.07h.28v-.3c0-.26-.1-.38-.29-.38s-.32.13-.32.39" transform="translate(10.61 -20)"/><path class="cls-2" d="M41.84,50.12c0-.2,0-.41,0-.63,0,.21,0,.42,0,.63" transform="translate(10.61 -20)"/><path class="cls-3" d="M91.42,28.85c-1-2-1.56-3.14-1.61-3.35a5.5,5.5,0,0,0,1.49.31c.31,0,.46-.09.46-.27s-.13-.35-.39-.61q-2.4-2.36-3.12-3.16a.78.78,0,0,0-.39-.23c-.09,0-.17.16-.22.46q-.54,2.57-.54,2.82a.87.87,0,0,0,.37.65,2.46,2.46,0,0,1,.62,1.18A22.81,22.81,0,0,0,90.31,32a21.68,21.68,0,0,1,1.33,2.47c-.76,1.3-2.65,2.83-5.68,4.61a50.51,50.51,0,0,1-7.28,3.48c-.8.31-1.62.6-2.46.88s-1.49.48-2.25.7a58.27,58.27,0,0,1-16.49,2.39H55.69c-.77,0-1.56,0-2.38-.06l-2-.09c-1-.07-2-.15-3.11-.26l-.34,0L45.7,45.8c-1.22-.17-2.39-.35-3.5-.55l-1.64-.31-.46-.11a45.14,45.14,0,0,1-5.21-1.47A45.82,45.82,0,0,1,25,38.19a10,10,0,0,0-1.61-.92c-.05,0-.07,0-.07.08a7.3,7.3,0,0,0,.92,1.41,26.57,26.57,0,0,0,4.19,4.73,15.07,15.07,0,0,0,2.76,2.13,38.45,38.45,0,0,0,9.25,3.19l.43.1,1.63.3c1.13.2,2.32.38,3.56.54l2.12.23.21,0q1.68.16,3.27.24c.69,0,1.37.07,2,.08s1.46,0,2.16,0h.72A59.9,59.9,0,0,0,76.41,46.9c.57-.2,1.15-.41,1.72-.63l.8-.31q9.1-3.59,11.88-7.62a10.55,10.55,0,0,0,1.56-3,7.7,7.7,0,0,0,.27-2.26,10.11,10.11,0,0,0-1.22-4.27" transform="translate(10.61 -20)"/><path class="cls-2" d="M41.84,50.12c0-.2,0-.41,0-.63,0,.21,0,.42,0,.63" transform="translate(10.61 -20)"/><path class="cls-3" d="M106.44,66.86a9.41,9.41,0,0,1,.79-2.16c1.18-1.75,2.48-3.41,3.71-5.12.46-.64.86-1.33,1.29-2-.87-.65-1.75-.2-2.54.08-3.42,1.24-6.8,2.59-10.21,3.83a43,43,0,0,1-14.12,2.93C81,64.5,79.3,63.29,78,59.19c0-.15-.11-.3-.12-.32a39.86,39.86,0,0,1-2.36,3.56C73.14,65.28,68.42,65,66.74,62a20.26,20.26,0,0,0-1-2,1.65,1.65,0,0,0-1.25-.66,8.2,8.2,0,0,0-5.67,3.64,2.24,2.24,0,0,0,0,2.82,11.15,11.15,0,0,0,4.56,3.42,1.21,1.21,0,0,1,.8,1.36c-.07,1.17,0,2.35,0,3.64a19.6,19.6,0,0,1-8-3.89,10.36,10.36,0,0,1-3.53-7.1c-.56-6.53-1-13.06-1.64-19.58-.34-3.65-1-7.28-1.42-10.92a3.83,3.83,0,0,1,.17-1.61,12.13,12.13,0,0,1,1.47-2.95c.33,2.13.77,4.25,1,6.39.79,8.3,1.49,16.61,2.23,24.91a10.22,10.22,0,0,0,2.19,6.1c.07-.66.11-1.16.17-1.66.45-4.06,4.26-8.13,8.14-8.72,1.26-.19,1.66,0,2.19,1.17.07.15.13.3.19.45,1.43,3.45,4.71,4.43,7.91,2.43a3.06,3.06,0,0,0,1.7-3.12c-.38-5.61-.62-11.23-1-16.84-.27-4.53-.67-9-.87-13.57A8.24,8.24,0,0,1,76,22.88c.17-.45.38-.89.57-1.34h.26c.2,1.24.49,2.47.59,3.71.44,5.84.79,11.69,1.24,17.53.33,4.41.6,8.85,1.2,13.23.43,3.15,1.93,4.13,5.15,4.19,6,.12,11.63-1.55,17.15-3.68,2.59-1,5.17-2,7.79-3a6.51,6.51,0,0,1,2.52-.32,2,2,0,0,1,2,2.58,11.89,11.89,0,0,1-1.74,3.49c-.8,1.17-1.89,2.13-2.78,3.24s-1.66,2.3-2.49,3.45c-.23.33-.45.68-.68,1l-.39-.17" transform="translate(10.61 -20)"/><path class="cls-3" d="M69.68,67.52l3.81,2.18c.6-1,1.21-2.09,1.86-3.23,1.25.74,2.44,1.43,3.72,2.17l-1.86,3.92c-1.34-.77-2.56-1.49-3.88-2.26L71.5,73.5l-3.63-2.06c.58-1.27,1.16-2.51,1.81-3.92" transform="translate(10.61 -20)"/><path class="cls-3" d="M81.18,34.39c.62-1.34,1.2-2.58,1.83-3.92l3.8,2L85,36.34l-3.8-2" transform="translate(10.61 -20)"/><path class="cls-3" d="M47,63.05c-.15-2.19-.27-4.12-.43-6q-.95-11.86-1.93-23.73c-.14-1.78-.28-3.56-.43-5.34a2.2,2.2,0,0,0-.11-.78c-1.15-2.12.54-3.62,1-5.38l.31,0,3,9.2-.38.2-1.52-1.62c.19,2.48.37,4.74.54,7q.74,9.43,1.46,18.89A17.12,17.12,0,0,1,47.65,62c-.07.22-.15.43-.24.65a4.92,4.92,0,0,1-.38.45" transform="translate(10.61 -20)"/><path class="cls-1" d="M108.12,43.31c-.12.31-.24.46-.34.46s-.14-.2,0-.59a8.07,8.07,0,0,0,.09-1.33c0-1.77-1-3.54-3-5.31a.3.3,0,0,1,0-.41l.57-1c0-.08.14-.08.24,0a7,7,0,0,1,3,6,5.85,5.85,0,0,1-.42,2.22" transform="translate(10.61 -20)"/><path class="cls-1" d="M57.68,57c-.07.17-.13.25-.19.25s-.08-.1,0-.32a3.73,3.73,0,0,0,.06-.74,4,4,0,0,0-1.66-2.93.17.17,0,0,1,0-.23l.31-.56s.08,0,.14,0a3.89,3.89,0,0,1,1.63,3.3A3.13,3.13,0,0,1,57.68,57" transform="translate(10.61 -20)"/><path class="cls-1" d="M2.16,38.7a3.13,3.13,0,0,1-.68,1.21A6.49,6.49,0,0,1,0,41.46a13.13,13.13,0,0,1-2.93,1c-.29.08-.44.1-.44.08l.31-.26c.22-.16.8-.49,1.77-1A12.91,12.91,0,0,0,.36,40.3a.14.14,0,0,0,0-.09c0-.22-.83-.33-2.47-.33l-.95,0c-.3,0-.45,0-.45-.07a.94.94,0,0,1,.11-.25l.59-1a1.27,1.27,0,0,1,.93-.54A10.54,10.54,0,0,1-.68,38c1.89,0,2.84.23,2.84.66" transform="translate(10.61 -20)"/><path class="cls-1" d="M84.19,54l27.3-8.25c.37-.11.59-.14.65-.1s.06.27-.1.57A5.26,5.26,0,0,1,111,47.93q-12,3.6-28.09,9A15.49,15.49,0,0,1,84.19,54" transform="translate(10.61 -20)"/><path class="cls-1" d="M56.69,41.44l15.66-4.73a.85.85,0,0,1,.38-.06q.08.08-.06.33a2.8,2.8,0,0,1-.62,1Q65.2,40,55.93,43.12a9.21,9.21,0,0,1,.76-1.68" transform="translate(10.61 -20)"/><path class="cls-1" d="M24.84,23.5a3.41,3.41,0,0,1,2.73,1.8A11.56,11.56,0,0,1,29.25,30a1.19,1.19,0,0,1,.06.35c0,.06.07.06.08,0a1.89,1.89,0,0,0,.13-.35,47.72,47.72,0,0,1,1.2-5.13q1-2.45,2.25-2.46a1.75,1.75,0,0,1,1.25.84,2.26,2.26,0,0,1,.54,1.19,3.26,3.26,0,0,1-.19.92q-.24.75-.57.75c-.09,0-.29-.18-.6-.55a1.26,1.26,0,0,0-.95-.56c-.72,0-1.39,1.69-2,5.05a11.42,11.42,0,0,1-.9,3.11c-.23.41-.42.61-.59.61s-.21-.19-.22-.56a11.2,11.2,0,0,0-1-3.44c-.68-1.7-1.17-2.55-1.46-2.56a.4.4,0,0,0-.38.19c-.05.13-.21.19-.49.18a2,2,0,0,1-1.2-.67c-.49-.45-.74-.82-.75-1.1a6,6,0,0,1,.63-1.23c.42-.7.68-1,.78-1.06" transform="translate(10.61 -20)"/><path class="cls-1" d="M90.41,45.5a5,5,0,0,1-1,2.65A9.2,9.2,0,0,1,87,50.82a2.39,2.39,0,0,1-.72.43s0,0,0,0a3.3,3.3,0,0,1,.51-.67c1.68-1.87,2.52-3.13,2.52-3.76s-.27-.89-.81-.9a1.38,1.38,0,0,0-.8.27,1.14,1.14,0,0,1-.33.22.22.22,0,0,0-.12-.07c0-.06,0-.22.1-.48.27-1.27.9-1.91,1.88-1.92.83,0,1.24.54,1.24,1.59" transform="translate(10.61 -20)"/><path class="cls-1" d="M58.72,27.76a2.82,2.82,0,0,1-.52,1.48,5.36,5.36,0,0,1-1.4,1.49,1.56,1.56,0,0,1-.4.24h0a2.29,2.29,0,0,1,.29-.38c.94-1,1.4-1.74,1.4-2.1s-.14-.5-.44-.5a.72.72,0,0,0-.45.15c-.1.08-.16.12-.19.12l-.06,0s0-.13,0-.27c.16-.71.5-1.07,1.05-1.08s.69.31.69.89" transform="translate(10.61 -20)"/><path class="cls-1" d="M34.76,36.78c.7.52,1,1,1,1.55a2.27,2.27,0,0,1-.23,1,1.38,1.38,0,0,1-1.15.63q-.66,0-.66-.81a2.87,2.87,0,0,1,0-.39,9.93,9.93,0,0,1,.65-1.91,4.54,4.54,0,0,0,.46-1.77,3.79,3.79,0,0,0-1.34-2.72.18.18,0,0,1,0-.22l.3-.54s.08,0,.13,0a3.76,3.76,0,0,1,1.32,3.09,5.34,5.34,0,0,1-.47,2.05m.68,1.79q0-.3-1-.87a2.55,2.55,0,0,0-.32,1.09c0,.21.1.31.29.31a1.32,1.32,0,0,0,.61-.17,1.27,1.27,0,0,0,.47-.36" transform="translate(10.61 -20)"/><path class="cls-1" d="M97.49,39.89a23.24,23.24,0,0,1,1.34-4.4,10.54,10.54,0,0,0,.81-4q0-3.77-3.57-7.26a.46.46,0,0,1-.08-.59l.8-1.42c.08-.12.2-.12.35,0,2.34,1.91,3.5,4.64,3.5,8.2a14.68,14.68,0,0,1-1.13,5.43,13.92,13.92,0,0,0-1.14,4c0,1.48.41,2.22,1.21,2.22.47,0,1-.54,1.58-1.62a1,1,0,0,1,.16-.24c.05,0,.08,0,.08,0s0,.14,0,.27c-.48,2.62-1.26,3.93-2.36,3.93s-1.65-1.07-1.66-3.21a9.78,9.78,0,0,1,.11-1.31" transform="translate(10.61 -20)"/><path class="cls-1" d="M66.47,31.2a8.17,8.17,0,0,1-2.92,3,18.45,18.45,0,0,1-3.49,1.91c-.22.09-1.43.5-3.65,1.2a2.21,2.21,0,0,1-.7.15c-.05,0-.07,0-.08,0s.21-.23.61-.46c1.84-.92,4.46-2.39,7.83-4.41A10.66,10.66,0,0,0,66,30.94a5.16,5.16,0,0,1,.93-.92s0,0,0,0a6,6,0,0,1-.49,1.14m4.73-7.48a2.62,2.62,0,0,1-.17.69c-.14.37-.29.56-.45.54s-.22-.14-.44-.43a1,1,0,0,0-.69-.45c-.55,0-1.1,1.23-1.68,3.75A8.41,8.41,0,0,1,67,30.13c-.19.31-.35.45-.47.45s-.15-.15-.14-.44a9,9,0,0,0-.66-2.62q-.69-2-1-2a.29.29,0,0,0-.29.13c0,.09-.17.13-.38.12a1.55,1.55,0,0,1-.88-.55c-.36-.36-.54-.64-.53-.85a4.51,4.51,0,0,1,.51-.91c.34-.51.54-.77.62-.77a2.56,2.56,0,0,1,2,1.45,8.84,8.84,0,0,1,1.12,3.58c0,.15,0,.24,0,.26s0,.05.06,0a.88.88,0,0,0,.11-.25,34.25,34.25,0,0,1,1.07-3.84q.85-1.8,1.77-1.77a1.3,1.3,0,0,1,.91.67,1.67,1.67,0,0,1,.37.91" transform="translate(10.61 -20)"/><path class="cls-1" d="M9.86,50.7a.33.33,0,0,1,.09-.13s0,0,0,0,0,.07,0,.14c-.26,1.41-.68,2.12-1.27,2.12s-.93-.52-.94-1.55a8.85,8.85,0,0,1,1.11-4,2.73,2.73,0,0,1,.33-.53s0,0,0,0a3.31,3.31,0,0,1-.17.58,11.93,11.93,0,0,0-.75,3c0,.79.23,1.18.67,1.18q.38,0,.87-.87" transform="translate(10.61 -20)"/><path class="cls-1" d="M107.07,26.63a.83.83,0,0,1,.11-.17s.06,0,.06,0,0,.1,0,.19c-.33,1.82-.88,2.73-1.64,2.73s-1.2-.66-1.21-2a11.27,11.27,0,0,1,1.43-5.17,3,3,0,0,1,.43-.69l0,0a3.91,3.91,0,0,1-.21.76,14.64,14.64,0,0,0-1,3.91c0,1,.29,1.53.86,1.53.33,0,.7-.38,1.12-1.13" transform="translate(10.61 -20)"/><path class="cls-1" d="M73.43,54.74a.49.49,0,0,1,.08-.13s0,0,0,0a.17.17,0,0,1,0,.14c-.26,1.42-.68,2.12-1.27,2.12s-.93-.51-.94-1.55a8.69,8.69,0,0,1,1.11-4,2.64,2.64,0,0,1,.33-.54s0,0,0,0a3.31,3.31,0,0,1-.17.58,12.12,12.12,0,0,0-.75,3c0,.79.23,1.18.67,1.18q.38,0,.87-.87" transform="translate(10.61 -20)"/><path class="cls-3" d="M42.78,29.16A46.3,46.3,0,0,0,39.43,20c-.5,1.2-1,2.4-1.48,3.61a.73.73,0,0,0,0,.46c1,2.22.81,4.6,1,6.93.41,4.61.77,9.22,1.13,13.83.06.83.12,1.66.19,2.49,0,.5.07,1,.11,1.49l.43.1,1.63.3c-.09-1.32-.17-2.64-.26-4-.3-4.43-.63-8.85-.94-13.28-.09-1.29-.19-2.57-.3-4,.63.57,1.08,1,1.55,1.4l.27-.19" transform="translate(10.61 -20)"/><path class="cls-3" d="M42.76,54.25l-.3-5-1.63-.3-.43-.1c.2,2.74.39,5.48.55,8.21a1.22,1.22,0,0,1-.35,1C37.12,60,31.85,59.5,29.3,57L31.92,56c.9-.3,2.06-.33,2.64-.94s.77-1.85,1.12-2.81c0-.06.09-.14.08-.18-.11-.25-.17-.63-.37-.73a19.61,19.61,0,0,0-17.59-.74c-.26.11-.61.27-.7.5-.5,1.22-.94,2.47-1.49,4,2.75-1.13,4.65.08,6.56,1.52-.26.17-.44.31-.64.42a35,35,0,0,0-9.12,7.58c-1.33,1.56-2.76,3-4.24,4.46a9.57,9.57,0,0,1-5.24,2.83,2.9,2.9,0,0,1-3.44-2,7.63,7.63,0,0,1-.31-3.5,64.56,64.56,0,0,1,2-6.3l.15-.44a2.26,2.26,0,0,0,1.25-1.81,2.19,2.19,0,0,1,.1-.48.31.31,0,0,1-.12-.07,1.27,1.27,0,0,0-.34.22,1.38,1.38,0,0,1-.8.27c-.54,0-.8-.31-.8-.9S1.42,55,3.1,53.12a3.15,3.15,0,0,0,.51-.67s0,0,0,0a2.39,2.39,0,0,0-.72.43A9.24,9.24,0,0,0,.36,55.53a5,5,0,0,0-.94,2.65c0,.92.31,1.45,1,1.57-2,3.38-3.06,7-2.07,11C-.56,75.49,3.65,77,7.47,74a27.75,27.75,0,0,0,4.3-4.23,43.14,43.14,0,0,1,12.7-10.5,1.13,1.13,0,0,1,1.49.09c.81.68,1.69,1.28,2.53,1.91A10.61,10.61,0,0,0,39.1,62.71a4.37,4.37,0,0,0,3-3.28,21.86,21.86,0,0,0,.64-5.18m-18.7-1.2,4.73.26c-2.36,1.55-2.81,1.53-4.73-.26" transform="translate(10.61 -20)"/><path class="cls-3" d="M-6.68,38.09c-.24.63-.5,1.25-.71,1.89-.67,2.1-1.46,4.17-1.94,6.31a7,7,0,0,0,.25,3.22,3,3,0,0,0,3.67,2.25,7.15,7.15,0,0,0,3.87-1.89A61.45,61.45,0,0,0,4,44.49a27.14,27.14,0,0,1,12.7-8.12c.88-.29,1.73-.66,2.61-1a.74.74,0,0,0,.53-1.07,15.48,15.48,0,0,0-.95-2.81,4.27,4.27,0,0,1-.41-3.48,23.21,23.21,0,0,0,.42-2.33,12.08,12.08,0,0,1,2.58,6.36,10.1,10.1,0,0,1-.67,5.06A4.94,4.94,0,0,1,17.77,40a38.8,38.8,0,0,0-7,3A36.49,36.49,0,0,0,5.13,47.8c-2,1.86-3.8,3.88-5.77,5.74-4.39,4.17-9.14.8-9.82-3.77-.64-4.3.89-8,3.12-11.5A1.55,1.55,0,0,1-7,38l.3.13" transform="translate(10.61 -20)"/><path class="cls-3" d="M12.86,46.43c.6-1.3,1.18-2.54,1.82-3.9l3.8,2.17c.6-1.05,1.21-2.09,1.87-3.23l3.71,2.18c-.63,1.33-1.23,2.56-1.86,3.9-1.31-.75-2.56-1.47-3.89-2.25l-1.82,3.21-3.63-2.08" transform="translate(10.61 -20)"/><path class="cls-3" d="M9.77,30.31l3.8,2L11.75,36.2l-3.81-2,1.83-3.93" transform="translate(10.61 -20)"/><path class="cls-3" d="M9.9,55.67l3.8,2-1.83,3.92-3.8-2c.6-1.3,1.19-2.55,1.83-3.93" transform="translate(10.61 -20)"/></svg>