<svg id="Layer_1" data-name="Layer 1" xmlns="http://www.w3.org/2000/svg" viewBox="0 0 29.29 27.69"><defs><style>.cls-1{fill:#c69c6d;}</style></defs><title>small-dots</title><circle class="cls-1" cx="14.68" cy="0.2" r="0.2"/><circle class="cls-1" cx="16.74" cy="0.2" r="0.2"/><circle class="cls-1" cx="18.8" cy="0.2" r="0.2"/><circle class="cls-1" cx="20.86" cy="0.2" r="0.2"/><circle class="cls-1" cx="22.91" cy="0.2" r="0.2"/><circle class="cls-1" cx="24.97" cy="0.2" r="0.2"/><circle class="cls-1" cx="27.03" cy="0.2" r="0.2"/><circle class="cls-1" cx="29.09" cy="0.2" r="0.2"/><circle class="cls-1" cx="14.68" cy="2.15" r="0.2"/><circle class="cls-1" cx="16.74" cy="2.15" r="0.2"/><circle class="cls-1" cx="18.8" cy="2.15" r="0.2"/><circle class="cls-1" cx="20.86" cy="2.15" r="0.2"/><circle class="cls-1" cx="22.91" cy="2.15" r="0.2"/><circle class="cls-1" cx="24.97" cy="2.15" r="0.2"/><circle class="cls-1" cx="27.03" cy="2.15" r="0.2"/><circle class="cls-1" cx="29.09" cy="2.15" r="0.2"/><circle class="cls-1" cx="14.68" cy="4.1" r="0.2"/><circle class="cls-1" cx="16.74" cy="4.1" r="0.2"/><circle class="cls-1" cx="18.8" cy="4.1" r="0.2"/><circle class="cls-1" cx="20.86" cy="4.1" r="0.2"/><circle class="cls-1" cx="22.91" cy="4.1" r="0.2"/><circle class="cls-1" cx="24.97" cy="4.1" r="0.2"/><circle class="cls-1" cx="27.03" cy="4.1" r="0.2"/><circle class="cls-1" cx="29.09" cy="4.1" r="0.2"/><circle class="cls-1" cx="14.68" cy="6.05" r="0.2"/><circle class="cls-1" cx="16.74" cy="6.05" r="0.2"/><circle class="cls-1" cx="18.8" cy="6.05" r="0.2"/><circle class="cls-1" cx="20.86" cy="6.05" r="0.2"/><circle class="cls-1" cx="22.91" cy="6.05" r="0.2"/><circle class="cls-1" cx="24.97" cy="6.05" r="0.2"/><circle class="cls-1" cx="27.03" cy="6.05" r="0.2"/><circle class="cls-1" cx="29.09" cy="6.05" r="0.2"/><circle class="cls-1" cx="14.68" cy="8" r="0.2"/><circle class="cls-1" cx="16.74" cy="8" r="0.2"/><circle class="cls-1" cx="18.8" cy="8" r="0.2"/><circle class="cls-1" cx="20.86" cy="8" r="0.2"/><circle class="cls-1" cx="22.91" cy="8" r="0.2"/><circle class="cls-1" cx="24.97" cy="8" r="0.2"/><circle class="cls-1" cx="27.03" cy="8" r="0.2"/><circle class="cls-1" cx="29.09" cy="8" r="0.2"/><circle class="cls-1" cx="14.68" cy="9.95" r="0.2"/><circle class="cls-1" cx="16.74" cy="9.95" r="0.2"/><circle class="cls-1" cx="18.8" cy="9.95" r="0.2"/><circle class="cls-1" cx="20.86" cy="9.95" r="0.2"/><circle class="cls-1" cx="22.91" cy="9.95" r="0.2"/><circle class="cls-1" cx="24.97" cy="9.95" r="0.2"/><circle class="cls-1" cx="27.03" cy="9.95" r="0.2"/><circle class="cls-1" cx="29.09" cy="9.95" r="0.2"/><circle class="cls-1" cx="14.68" cy="11.89" r="0.2"/><circle class="cls-1" cx="16.74" cy="11.89" r="0.2"/><circle class="cls-1" cx="18.8" cy="11.89" r="0.2"/><circle class="cls-1" cx="20.86" cy="11.89" r="0.2"/><circle class="cls-1" cx="22.91" cy="11.89" r="0.2"/><circle class="cls-1" cx="24.97" cy="11.89" r="0.2"/><circle class="cls-1" cx="27.03" cy="11.89" r="0.2"/><circle class="cls-1" cx="29.09" cy="11.89" r="0.2"/><circle class="cls-1" cx="14.68" cy="13.84" r="0.2"/><circle class="cls-1" cx="16.74" cy="13.84" r="0.2"/><circle class="cls-1" cx="18.8" cy="13.84" r="0.2"/><circle class="cls-1" cx="20.86" cy="13.84" r="0.2"/><circle class="cls-1" cx="22.91" cy="13.84" r="0.2"/><circle class="cls-1" cx="24.97" cy="13.84" r="0.2"/><circle class="cls-1" cx="27.03" cy="13.84" r="0.2"/><circle class="cls-1" cx="29.09" cy="13.84" r="0.2"/><circle class="cls-1" cx="14.68" cy="15.79" r="0.2"/><circle class="cls-1" cx="16.74" cy="15.79" r="0.2"/><circle class="cls-1" cx="18.8" cy="15.79" r="0.2"/><circle class="cls-1" cx="20.86" cy="15.79" r="0.2"/><circle class="cls-1" cx="22.91" cy="15.79" r="0.2"/><circle class="cls-1" cx="24.97" cy="15.79" r="0.2"/><circle class="cls-1" cx="27.03" cy="15.79" r="0.2"/><circle class="cls-1" cx="29.09" cy="15.79" r="0.2"/><circle class="cls-1" cx="14.68" cy="17.74" r="0.2"/><circle class="cls-1" cx="16.74" cy="17.74" r="0.2"/><circle class="cls-1" cx="18.8" cy="17.74" r="0.2"/><circle class="cls-1" cx="20.86" cy="17.74" r="0.2"/><circle class="cls-1" cx="22.91" cy="17.74" r="0.2"/><circle class="cls-1" cx="24.97" cy="17.74" r="0.2"/><circle class="cls-1" cx="27.03" cy="17.74" r="0.2"/><circle class="cls-1" cx="29.09" cy="17.74" r="0.2"/><circle class="cls-1" cx="14.68" cy="19.69" r="0.2"/><circle class="cls-1" cx="16.74" cy="19.69" r="0.2"/><circle class="cls-1" cx="18.8" cy="19.69" r="0.2"/><circle class="cls-1" cx="20.86" cy="19.69" r="0.2"/><circle class="cls-1" cx="22.91" cy="19.69" r="0.2"/><circle class="cls-1" cx="24.97" cy="19.69" r="0.2"/><circle class="cls-1" cx="27.03" cy="19.69" r="0.2"/><circle class="cls-1" cx="29.09" cy="19.69" r="0.2"/><circle class="cls-1" cx="0.2" cy="0.2" r="0.2"/><circle class="cls-1" cx="2.26" cy="0.2" r="0.2"/><circle class="cls-1" cx="4.32" cy="0.2" r="0.2"/><circle class="cls-1" cx="6.38" cy="0.2" r="0.2"/><circle class="cls-1" cx="8.44" cy="0.2" r="0.2"/><circle class="cls-1" cx="10.5" cy="0.2" r="0.2"/><circle class="cls-1" cx="12.56" cy="0.2" r="0.2"/><circle class="cls-1" cx="0.2" cy="2.15" r="0.2"/><circle class="cls-1" cx="2.26" cy="2.15" r="0.2"/><circle class="cls-1" cx="4.32" cy="2.15" r="0.2"/><circle class="cls-1" cx="6.38" cy="2.15" r="0.2"/><circle class="cls-1" cx="8.44" cy="2.15" r="0.2"/><circle class="cls-1" cx="10.5" cy="2.15" r="0.2"/><circle class="cls-1" cx="12.56" cy="2.15" r="0.2"/><circle class="cls-1" cx="0.2" cy="4.1" r="0.2"/><circle class="cls-1" cx="2.26" cy="4.1" r="0.2"/><circle class="cls-1" cx="4.32" cy="4.1" r="0.2"/><circle class="cls-1" cx="6.38" cy="4.1" r="0.2"/><circle class="cls-1" cx="8.44" cy="4.1" r="0.2"/><circle class="cls-1" cx="10.5" cy="4.1" r="0.2"/><circle class="cls-1" cx="12.56" cy="4.1" r="0.2"/><circle class="cls-1" cx="0.2" cy="6.05" r="0.2"/><circle class="cls-1" cx="2.26" cy="6.05" r="0.2"/><circle class="cls-1" cx="4.32" cy="6.05" r="0.2"/><circle class="cls-1" cx="6.38" cy="6.05" r="0.2"/><circle class="cls-1" cx="8.44" cy="6.05" r="0.2"/><circle class="cls-1" cx="10.5" cy="6.05" r="0.2"/><circle class="cls-1" cx="12.56" cy="6.05" r="0.2"/><circle class="cls-1" cx="0.2" cy="8" r="0.2"/><circle class="cls-1" cx="2.26" cy="8" r="0.2"/><circle class="cls-1" cx="4.32" cy="8" r="0.2"/><circle class="cls-1" cx="6.38" cy="8" r="0.2"/><circle class="cls-1" cx="8.44" cy="8" r="0.2"/><circle class="cls-1" cx="10.5" cy="8" r="0.2"/><circle class="cls-1" cx="12.56" cy="8" r="0.2"/><circle class="cls-1" cx="0.2" cy="9.95" r="0.2"/><circle class="cls-1" cx="2.26" cy="9.95" r="0.2"/><circle class="cls-1" cx="4.32" cy="9.95" r="0.2"/><circle class="cls-1" cx="6.38" cy="9.95" r="0.2"/><circle class="cls-1" cx="8.44" cy="9.95" r="0.2"/><circle class="cls-1" cx="10.5" cy="9.95" r="0.2"/><circle class="cls-1" cx="12.56" cy="9.95" r="0.2"/><circle class="cls-1" cx="0.2" cy="11.89" r="0.2"/><circle class="cls-1" cx="2.26" cy="11.89" r="0.2"/><circle class="cls-1" cx="4.32" cy="11.89" r="0.2"/><circle class="cls-1" cx="6.38" cy="11.89" r="0.2"/><circle class="cls-1" cx="8.44" cy="11.89" r="0.2"/><circle class="cls-1" cx="10.5" cy="11.89" r="0.2"/><circle class="cls-1" cx="12.56" cy="11.89" r="0.2"/><circle class="cls-1" cx="0.2" cy="13.84" r="0.2"/><circle class="cls-1" cx="2.26" cy="13.84" r="0.2"/><circle class="cls-1" cx="4.32" cy="13.84" r="0.2"/><circle class="cls-1" cx="6.38" cy="13.84" r="0.2"/><circle class="cls-1" cx="8.44" cy="13.84" r="0.2"/><circle class="cls-1" cx="10.5" cy="13.84" r="0.2"/><circle class="cls-1" cx="12.56" cy="13.84" r="0.2"/><circle class="cls-1" cx="0.2" cy="15.79" r="0.2"/><circle class="cls-1" cx="2.26" cy="15.79" r="0.2"/><circle class="cls-1" cx="4.32" cy="15.79" r="0.2"/><circle class="cls-1" cx="6.38" cy="15.79" r="0.2"/><circle class="cls-1" cx="8.44" cy="15.79" r="0.2"/><circle class="cls-1" cx="10.5" cy="15.79" r="0.2"/><circle class="cls-1" cx="12.56" cy="15.79" r="0.2"/><circle class="cls-1" cx="0.2" cy="17.74" r="0.2"/><circle class="cls-1" cx="2.26" cy="17.74" r="0.2"/><circle class="cls-1" cx="4.32" cy="17.74" r="0.2"/><circle class="cls-1" cx="6.38" cy="17.74" r="0.2"/><circle class="cls-1" cx="8.44" cy="17.74" r="0.2"/><circle class="cls-1" cx="10.5" cy="17.74" r="0.2"/><circle class="cls-1" cx="12.56" cy="17.74" r="0.2"/><circle class="cls-1" cx="0.2" cy="19.69" r="0.2"/><circle class="cls-1" cx="2.26" cy="19.69" r="0.2"/><circle class="cls-1" cx="4.32" cy="19.69" r="0.2"/><circle class="cls-1" cx="6.38" cy="19.69" r="0.2"/><circle class="cls-1" cx="8.44" cy="19.69" r="0.2"/><circle class="cls-1" cx="10.5" cy="19.69" r="0.2"/><circle class="cls-1" cx="12.56" cy="19.69" r="0.2"/><circle class="cls-1" cx="14.68" cy="21.74" r="0.2"/><circle class="cls-1" cx="16.74" cy="21.74" r="0.2"/><circle class="cls-1" cx="18.8" cy="21.74" r="0.2"/><circle class="cls-1" cx="20.86" cy="21.74" r="0.2"/><circle class="cls-1" cx="22.91" cy="21.74" r="0.2"/><circle class="cls-1" cx="24.97" cy="21.74" r="0.2"/><circle class="cls-1" cx="27.03" cy="21.74" r="0.2"/><circle class="cls-1" cx="29.09" cy="21.74" r="0.2"/><circle class="cls-1" cx="14.68" cy="23.69" r="0.2"/><circle class="cls-1" cx="16.74" cy="23.69" r="0.2"/><circle class="cls-1" cx="18.8" cy="23.69" r="0.2"/><circle class="cls-1" cx="20.86" cy="23.69" r="0.2"/><circle class="cls-1" cx="22.91" cy="23.69" r="0.2"/><circle class="cls-1" cx="24.97" cy="23.69" r="0.2"/><circle class="cls-1" cx="27.03" cy="23.69" r="0.2"/><circle class="cls-1" cx="29.09" cy="23.69" r="0.2"/><circle class="cls-1" cx="14.68" cy="25.64" r="0.2"/><circle class="cls-1" cx="16.74" cy="25.64" r="0.2"/><circle class="cls-1" cx="18.8" cy="25.64" r="0.2"/><circle class="cls-1" cx="20.86" cy="25.64" r="0.2"/><circle class="cls-1" cx="22.91" cy="25.64" r="0.2"/><circle class="cls-1" cx="24.97" cy="25.64" r="0.2"/><circle class="cls-1" cx="27.03" cy="25.64" r="0.2"/><circle class="cls-1" cx="29.09" cy="25.64" r="0.2"/><circle class="cls-1" cx="0.2" cy="21.74" r="0.2"/><circle class="cls-1" cx="2.26" cy="21.74" r="0.2"/><circle class="cls-1" cx="4.32" cy="21.74" r="0.2"/><circle class="cls-1" cx="6.38" cy="21.74" r="0.2"/><circle class="cls-1" cx="8.44" cy="21.74" r="0.2"/><circle class="cls-1" cx="10.5" cy="21.74" r="0.2"/><circle class="cls-1" cx="12.56" cy="21.74" r="0.2"/><circle class="cls-1" cx="0.2" cy="23.69" r="0.2"/><circle class="cls-1" cx="2.26" cy="23.69" r="0.2"/><circle class="cls-1" cx="4.32" cy="23.69" r="0.2"/><circle class="cls-1" cx="6.38" cy="23.69" r="0.2"/><circle class="cls-1" cx="8.44" cy="23.69" r="0.2"/><circle class="cls-1" cx="10.5" cy="23.69" r="0.2"/><circle class="cls-1" cx="12.56" cy="23.69" r="0.2"/><circle class="cls-1" cx="0.2" cy="25.64" r="0.2"/><circle class="cls-1" cx="2.26" cy="25.64" r="0.2"/><circle class="cls-1" cx="4.32" cy="25.64" r="0.2"/><circle class="cls-1" cx="6.38" cy="25.64" r="0.2"/><circle class="cls-1" cx="8.44" cy="25.64" r="0.2"/><circle class="cls-1" cx="10.5" cy="25.64" r="0.2"/><circle class="cls-1" cx="12.56" cy="25.64" r="0.2"/><circle class="cls-1" cx="14.68" cy="27.49" r="0.2"/><circle class="cls-1" cx="16.74" cy="27.49" r="0.2"/><circle class="cls-1" cx="18.8" cy="27.49" r="0.2"/><circle class="cls-1" cx="20.86" cy="27.49" r="0.2"/><circle class="cls-1" cx="22.91" cy="27.49" r="0.2"/><circle class="cls-1" cx="24.97" cy="27.49" r="0.2"/><circle class="cls-1" cx="27.03" cy="27.49" r="0.2"/><circle class="cls-1" cx="29.09" cy="27.49" r="0.2"/><circle class="cls-1" cx="0.2" cy="27.49" r="0.2"/><circle class="cls-1" cx="2.26" cy="27.49" r="0.2"/><circle class="cls-1" cx="4.32" cy="27.49" r="0.2"/><circle class="cls-1" cx="6.38" cy="27.49" r="0.2"/><circle class="cls-1" cx="8.44" cy="27.49" r="0.2"/><circle class="cls-1" cx="10.5" cy="27.49" r="0.2"/><circle class="cls-1" cx="12.56" cy="27.49" r="0.2"/></svg>