<svg id="Layer_1" data-name="Layer 1" xmlns="http://www.w3.org/2000/svg" xmlns:xlink="http://www.w3.org/1999/xlink" viewBox="0 0 13.75 11.08"><defs><style>.cls-1{fill:none;}.cls-2{clip-path:url(#clip-path);}.cls-3{fill:#0070c4;}.cls-4{fill:#0080f7;}</style><clipPath id="clip-path" transform="translate(-1.13 -2.46)"><rect class="cls-1" width="16" height="16"/></clipPath></defs><title>favicon</title><g class="cls-2"><path class="cls-3" d="M8.34,9.05,9.45,6.54A7.92,7.92,0,0,0,7.84,3.91c-.1-.11-.21-.21-.31-.31L6.24,5.39A15.73,15.73,0,0,1,8.1,8.49l.24.56" transform="translate(-1.13 -2.46)"/><path class="cls-4" d="M14.61,4.82a4.1,4.1,0,0,0-3.42-2.36,3.52,3.52,0,0,0-1.64.38,5.41,5.41,0,0,0-2,1.81A13.75,13.75,0,0,0,5.73,8.16c-.16.4-.4,1.05-.84,2.18-.12.31-.25.61-.37.92h0a8.6,8.6,0,0,1-1-2.57c-.15-.75-.63-3.11.47-3.91a1.55,1.55,0,0,1,.92-.27,1.81,1.81,0,0,1,1.34.88L7.53,3.6a3.89,3.89,0,0,0-1.9-1.05,3.78,3.78,0,0,0-1.86.07,3.58,3.58,0,0,0-1.16.61,3.55,3.55,0,0,0-1,1.06,3.69,3.69,0,0,0-.49,1.64,11.11,11.11,0,0,0,1.69,6.58,2.39,2.39,0,0,0,1.17,1,1.86,1.86,0,0,0,.66.07,1.8,1.8,0,0,0,.65-.18,1.88,1.88,0,0,0,.51-.42c.56-.67,1.73-4,2.45-5.54.46-1,1.37-2.87,2.64-2.88a1.77,1.77,0,0,1,1.59,1A3.33,3.33,0,0,1,12.7,7a8,8,0,0,1-.41,2.09,14.49,14.49,0,0,1-.87,2.21c-.29-.7-.53-1.27-.69-1.67l-1.28-3L8.34,9.05c.58,1.64.82,2.22.82,2.22a6.84,6.84,0,0,0,.89,1.65,1.71,1.71,0,0,0,2.43.21,3.89,3.89,0,0,0,1-1.28,10.51,10.51,0,0,0,.82-2.17c.57-2.52.86-3.78.35-4.86" transform="translate(-1.13 -2.46)"/></g></svg>