<?xml version="1.0" encoding="utf-8"?>
<!-- Generator: Adobe Illustrator 23.0.5, SVG Export Plug-In . SVG Version: 6.00 Build 0)  -->
<svg version="1.1" id="Layer_1" xmlns="http://www.w3.org/2000/svg" xmlns:xlink="http://www.w3.org/1999/xlink" x="0px" y="0px"
	 viewBox="0 0 16 16" style="enable-background:new 0 0 16 16;" xml:space="preserve">
<style type="text/css">
	.st0{fill:#C6993B;}
	.st1{fill:#513417;}
	.st2{fill:#FFFFFF;}
</style>
<g>
	<path d="M14.52,16H1.48C0.66,16,0,15.34,0,14.52V1.48C0,0.66,0.66,0,1.48,0h13.03C15.34,0,16,0.66,16,1.48v13.03
		C16,15.34,15.34,16,14.52,16z"/>
</g>
<g>
	<path class="st0" d="M4.43,10.37c-0.03,0-0.05-0.01-0.07-0.02c-0.02-0.02-0.03-0.04-0.03-0.07c0-0.01,0-0.03,0.01-0.04
		c0.01-0.01,0.02-0.03,0.04-0.06l0,0l-0.01-0.01l0.01-0.01l0.03-0.03l0.01-0.01l0.01,0.01c0.02,0.02,0.04,0.03,0.05,0.05
		c0.01,0.01,0.02,0.03,0.03,0.04c0.01,0.01,0.02,0.02,0.02,0.03c0,0.01,0.01,0.02,0.01,0.03c0,0.03-0.01,0.05-0.03,0.07
		C4.49,10.36,4.46,10.37,4.43,10.37 M4.34,10.06l0.04-0.04l0.04,0.04L4.39,10.1L4.34,10.06z M4.39,10.28c0,0.01,0,0.02,0.01,0.02
		c0.01,0,0.02,0.01,0.03,0.01c0.01,0,0.02,0,0.03-0.01s0.01-0.01,0.01-0.02c0-0.01,0-0.01-0.01-0.02c-0.01-0.01-0.02-0.02-0.03-0.03
		c-0.01,0.01-0.02,0.02-0.02,0.03C4.4,10.25,4.4,10.26,4.4,10.27C4.39,10.27,4.39,10.27,4.39,10.28 M4.43,10.06l0.04-0.04l0.04,0.04
		c0,0,0,0,0,0c0,0-0.01,0.01-0.02,0.02S4.48,10.1,4.48,10.1L4.43,10.06z"/>
	<path class="st0" d="M4.68,10.37H4.66c-0.03,0-0.05-0.01-0.07-0.03c-0.02-0.02-0.02-0.04-0.02-0.08v-0.22v-0.01h0.01h0.04h0.01
		v0.01v0.22c0,0.01,0,0.02,0.01,0.03c0,0.01,0.01,0.01,0.02,0.01h0.01c0,0,0,0,0,0.01c0,0.01,0,0.01,0,0.02v0c0,0.01,0,0.01,0,0.02
		C4.68,10.36,4.68,10.37,4.68,10.37"/>
	<path class="st0" d="M4.74,10.3c0,0,0,0,0,0.01c0,0.01,0,0.01,0,0.02v0c0,0.01,0,0.01,0,0.02c0,0.01,0,0.01,0,0.01H4.67
		c0,0,0,0,0-0.01c0-0.01,0-0.01,0-0.02v0c0-0.01,0-0.01,0-0.02c0-0.01,0-0.01,0-0.01H4.74z"/>
	<path class="st0" d="M4.8,10.3c0,0,0,0,0,0.01c0,0.01,0,0.01,0,0.02v0c0,0.01,0,0.01,0,0.02c0,0.01,0,0.01,0,0.01H4.73
		c0,0,0,0,0-0.01c0-0.01,0-0.01,0-0.02v0c0-0.01,0-0.01,0-0.02c0-0.01,0-0.01,0-0.01H4.8z"/>
	<path class="st0" d="M4.86,10.3c0,0,0,0,0,0.01c0,0.01,0,0.01,0,0.02v0c0,0.01,0,0.01,0,0.02c0,0.01,0,0.01,0,0.01H4.8
		c0,0,0,0,0-0.01c0-0.01,0-0.01,0-0.02v0c0-0.01,0-0.01,0-0.02c0-0.01,0-0.01,0-0.01H4.86z"/>
	<path class="st0" d="M4.92,10.3c0,0,0,0,0,0.01c0,0.01,0,0.01,0,0.02v0c0,0.01,0,0.01,0,0.02c0,0.01,0,0.01,0,0.01H4.86
		c0,0,0,0,0-0.01c0-0.01,0-0.01,0-0.02v0c0-0.01,0-0.01,0-0.02c0-0.01,0-0.01,0-0.01H4.92z"/>
	<path class="st0" d="M4.99,10.3c0,0,0,0,0,0.01c0,0.01,0,0.01,0,0.02v0c0,0.01,0,0.01,0,0.02c0,0.01,0,0.01,0,0.01H4.92
		c0,0,0,0,0-0.01c0-0.01,0-0.01,0-0.02v0c0-0.01,0-0.01,0-0.02c0-0.01,0-0.01,0-0.01H4.99z"/>
	<path class="st0" d="M5.05,10.3c0,0,0,0,0,0.01c0,0.01,0,0.01,0,0.02v0c0,0.01,0,0.01,0,0.02c0,0.01,0,0.01,0,0.01H4.98
		c0,0,0,0,0-0.01c0-0.01,0-0.01,0-0.02v0c0-0.01,0-0.01,0-0.02c0-0.01,0-0.01,0-0.01H5.05z"/>
	<path class="st0" d="M5.11,10.3c0,0,0,0,0,0.01c0,0.01,0,0.01,0,0.02v0c0,0.01,0,0.01,0,0.02c0,0.01,0,0.01,0,0.01H5.04
		c0,0,0,0,0-0.01c0-0.01,0-0.01,0-0.02v0c0-0.01,0-0.01,0-0.02c0-0.01,0-0.01,0-0.01H5.11z"/>
	<path class="st0" d="M5.17,10.3c0,0,0,0,0,0.01c0,0.01,0,0.01,0,0.02v0c0,0.01,0,0.01,0,0.02c0,0.01,0,0.01,0,0.01H5.11
		c0,0,0,0,0-0.01c0-0.01,0-0.01,0-0.02v0c0-0.01,0-0.01,0-0.02c0-0.01,0-0.01,0-0.01H5.17z"/>
	<path class="st0" d="M5.23,10.3c0,0,0,0,0,0.01c0,0.01,0,0.01,0,0.02v0c0,0.01,0,0.01,0,0.02c0,0.01,0,0.01,0,0.01H5.17
		c0,0,0,0,0-0.01c0-0.01,0-0.01,0-0.02v0c0-0.01,0-0.01,0-0.02c0-0.01,0-0.01,0-0.01H5.23z"/>
	<path class="st0" d="M5.3,10.3c0,0,0,0,0,0.01c0,0.01,0,0.01,0,0.02v0c0,0.01,0,0.01,0,0.02c0,0.01,0,0.01,0,0.01H5.23
		c0,0,0,0,0-0.01c0-0.01,0-0.01,0-0.02v0c0-0.01,0-0.01,0-0.02c0-0.01,0-0.01,0-0.01H5.3z"/>
	<path class="st0" d="M5.36,10.3c0,0,0,0,0,0.01c0,0.01,0,0.01,0,0.02v0c0,0.01,0,0.01,0,0.02c0,0.01,0,0.01,0,0.01H5.29
		c0,0,0,0,0-0.01c0-0.01,0-0.01,0-0.02v0c0-0.01,0-0.01,0-0.02c0-0.01,0-0.01,0-0.01H5.36z"/>
	<path class="st0" d="M5.42,10.3c0,0,0,0,0,0.01c0,0.01,0,0.01,0,0.02v0c0,0.01,0,0.01,0,0.02c0,0.01,0,0.01,0,0.01H5.35
		c0,0,0,0,0-0.01c0-0.01,0-0.01,0-0.02v0c0-0.01,0-0.01,0-0.02c0-0.01,0-0.01,0-0.01H5.42z"/>
	<path class="st0" d="M5.48,10.3c0,0,0,0,0,0.01c0,0.01,0,0.01,0,0.02v0c0,0.01,0,0.01,0,0.02c0,0.01,0,0.01,0,0.01H5.42
		c0,0,0,0,0-0.01c0-0.01,0-0.01,0-0.02v0c0-0.01,0-0.01,0-0.02c0-0.01,0-0.01,0-0.01H5.48z"/>
	<path class="st0" d="M5.54,10.3c0,0,0,0,0,0.01c0,0.01,0,0.01,0,0.02v0c0,0.01,0,0.01,0,0.02c0,0.01,0,0.01,0,0.01H5.48
		c0,0,0,0,0-0.01c0-0.01,0-0.01,0-0.02v0c0-0.01,0-0.01,0-0.02c0-0.01,0-0.01,0-0.01H5.54z"/>
	<path class="st0" d="M5.61,10.3c0,0,0,0,0,0.01c0,0.01,0,0.01,0,0.02v0c0,0.01,0,0.01,0,0.02c0,0.01,0,0.01,0,0.01H5.54
		c0,0,0,0,0-0.01c0-0.01,0-0.01,0-0.02v0c0-0.01,0-0.01,0-0.02c0-0.01,0-0.01,0-0.01H5.61z"/>
	<path class="st0" d="M5.67,10.3c0,0,0,0,0,0.01c0,0.01,0,0.01,0,0.02v0c0,0.01,0,0.01,0,0.02c0,0.01,0,0.01,0,0.01H5.6
		c0,0,0,0,0-0.01c0-0.01,0-0.01,0-0.02v0c0-0.01,0-0.01,0-0.02c0-0.01,0-0.01,0-0.01H5.67z"/>
	<path class="st0" d="M5.73,10.3c0,0,0,0,0,0.01c0,0.01,0,0.01,0,0.02v0c0,0.01,0,0.01,0,0.02c0,0.01,0,0.01,0,0.01H5.66
		c0,0,0,0,0-0.01c0-0.01,0-0.01,0-0.02v0c0-0.01,0-0.01,0-0.02c0-0.01,0-0.01,0-0.01H5.73z"/>
	<path class="st0" d="M5.79,10.3c0,0,0,0,0,0.01c0,0.01,0,0.01,0,0.02v0c0,0.01,0,0.01,0,0.02c0,0.01,0,0.01,0,0.01H5.73
		c0,0,0,0,0-0.01c0-0.01,0-0.01,0-0.02v0c0-0.01,0-0.01,0-0.02c0-0.01,0-0.01,0-0.01H5.79z"/>
	<path class="st0" d="M5.85,10.3c0,0,0,0,0,0.01c0,0.01,0,0.01,0,0.02v0c0,0.01,0,0.01,0,0.02c0,0.01,0,0.01,0,0.01H5.79
		c0,0,0,0,0-0.01c0-0.01,0-0.01,0-0.02v0c0-0.01,0-0.01,0-0.02c0-0.01,0-0.01,0-0.01H5.85z"/>
	<path class="st0" d="M5.92,10.3c0,0,0,0,0,0.01c0,0.01,0,0.01,0,0.02v0c0,0.01,0,0.01,0,0.02c0,0.01,0,0.01,0,0.01H5.85
		c0,0,0,0,0-0.01c0-0.01,0-0.01,0-0.02v0c0-0.01,0-0.01,0-0.02c0-0.01,0-0.01,0-0.01H5.92z"/>
	<path class="st0" d="M5.98,10.3c0,0,0,0,0,0.01c0,0.01,0,0.01,0,0.02v0c0,0.01,0,0.01,0,0.02c0,0.01,0,0.01,0,0.01H5.91
		c0,0,0,0,0-0.01c0-0.01,0-0.01,0-0.02v0c0-0.01,0-0.01,0-0.02c0-0.01,0-0.01,0-0.01H5.98z"/>
	<path class="st0" d="M6.04,10.3c0,0,0,0,0,0.01c0,0.01,0,0.01,0,0.02v0c0,0.01,0,0.01,0,0.02c0,0.01,0,0.01,0,0.01H5.97
		c0,0,0,0,0-0.01c0-0.01,0-0.01,0-0.02v0c0-0.01,0-0.01,0-0.02c0-0.01,0-0.01,0-0.01H6.04z"/>
	<path class="st0" d="M6.1,10.3c0,0,0,0,0,0.01c0,0.01,0,0.01,0,0.02v0c0,0.01,0,0.01,0,0.02c0,0.01,0,0.01,0,0.01H6.04
		c0,0,0,0,0-0.01c0-0.01,0-0.01,0-0.02v0c0-0.01,0-0.01,0-0.02c0-0.01,0-0.01,0-0.01H6.1z"/>
	<path class="st0" d="M6.16,10.3c0,0,0,0,0,0.01c0,0.01,0,0.01,0,0.02v0c0,0.01,0,0.01,0,0.02c0,0.01,0,0.01,0,0.01H6.1
		c0,0,0,0,0-0.01c0-0.01,0-0.01,0-0.02v0c0-0.01,0-0.01,0-0.02c0-0.01,0-0.01,0-0.01H6.16z"/>
	<path class="st0" d="M6.23,10.3c0,0,0,0,0,0.01c0,0.01,0,0.01,0,0.02v0c0,0.01,0,0.01,0,0.02c0,0.01,0,0.01,0,0.01H6.16
		c0,0,0,0,0-0.01c0-0.01,0-0.01,0-0.02v0c0-0.01,0-0.01,0-0.02c0-0.01,0-0.01,0-0.01H6.23z"/>
	<path class="st0" d="M6.29,10.3c0,0,0,0,0,0.01c0,0.01,0,0.01,0,0.02v0c0,0.01,0,0.01,0,0.02c0,0.01,0,0.01,0,0.01H6.22
		c0,0,0,0,0-0.01c0-0.01,0-0.01,0-0.02v0c0-0.01,0-0.01,0-0.02c0-0.01,0-0.01,0-0.01H6.29z"/>
	<path class="st0" d="M6.35,10.3c0,0,0,0,0,0.01c0,0.01,0,0.01,0,0.02v0c0,0.01,0,0.01,0,0.02c0,0.01,0,0.01,0,0.01H6.29
		c0,0,0,0,0-0.01c0-0.01,0-0.01,0-0.02v0c0-0.01,0-0.01,0-0.02c0-0.01,0-0.01,0-0.01H6.35z"/>
	<path class="st0" d="M6.41,10.3c0,0,0,0,0,0.01c0,0.01,0,0.01,0,0.02v0c0,0.01,0,0.01,0,0.02c0,0.01,0,0.01,0,0.01H6.35
		c0,0,0,0,0-0.01c0-0.01,0-0.01,0-0.02v0c0-0.01,0-0.01,0-0.02c0-0.01,0-0.01,0-0.01H6.41z"/>
	<path class="st0" d="M6.47,10.3c0,0,0,0,0,0.01c0,0.01,0,0.01,0,0.02v0c0,0.01,0,0.01,0,0.02c0,0.01,0,0.01,0,0.01H6.41
		c0,0,0,0,0-0.01c0-0.01,0-0.01,0-0.02v0c0-0.01,0-0.01,0-0.02c0-0.01,0-0.01,0-0.01H6.47z"/>
	<path class="st0" d="M6.54,10.3c0,0,0,0,0,0.01c0,0.01,0,0.01,0,0.02v0c0,0.01,0,0.01,0,0.02c0,0.01,0,0.01,0,0.01H6.47
		c0,0,0,0,0-0.01c0-0.01,0-0.01,0-0.02v0c0-0.01,0-0.01,0-0.02c0-0.01,0-0.01,0-0.01H6.54z"/>
	<path class="st0" d="M6.53,10.3h0.03c0.01,0,0.01,0,0.02,0c0,0,0.01,0,0.01,0c0,0,0,0,0-0.01c0-0.01,0-0.02,0-0.03
		c0-0.03,0.01-0.06,0.02-0.08c0.02-0.02,0.04-0.03,0.07-0.03c0.03,0,0.05,0.01,0.07,0.03c0.02,0.02,0.02,0.04,0.02,0.08
		c0,0.03-0.01,0.06-0.02,0.08c-0.02,0.02-0.04,0.03-0.07,0.03c-0.03,0-0.05-0.01-0.06-0.02c-0.01,0.01-0.03,0.02-0.05,0.02H6.53
		c0,0,0,0,0-0.01c0-0.01,0-0.01,0-0.02v0c0-0.01,0-0.01,0-0.02C6.53,10.31,6.53,10.3,6.53,10.3 M6.65,10.3
		c0.01,0.01,0.01,0.01,0.02,0.01c0.01,0,0.02,0,0.02-0.01c0.01-0.01,0.01-0.02,0.01-0.03c0-0.02,0-0.03-0.01-0.03
		c0-0.01-0.01-0.01-0.02-0.01c-0.01,0-0.02,0-0.02,0.01c0,0.01-0.01,0.02-0.01,0.03C6.64,10.28,6.65,10.29,6.65,10.3"/>
	<path class="st0" d="M6.91,10.37H6.9c-0.03,0-0.05-0.01-0.07-0.03c-0.02-0.02-0.02-0.04-0.02-0.08v-0.22v-0.01h0.01h0.04h0.01v0.01
		v0.22c0,0.01,0,0.02,0.01,0.03c0,0.01,0.01,0.01,0.02,0.01h0.01c0,0,0,0,0,0.01c0,0.01,0,0.01,0,0.02v0c0,0.01,0,0.01,0,0.02
		C6.92,10.36,6.91,10.37,6.91,10.37"/>
	<path class="st0" d="M7.25,10.37H7.22c-0.04,0-0.06-0.01-0.08-0.04l-0.02,0.01c-0.04,0.02-0.08,0.03-0.12,0.03H6.91c0,0,0,0,0-0.01
		c0-0.01,0-0.01,0-0.02v0c0-0.01,0-0.01,0-0.02c0-0.01,0-0.01,0-0.01h0.08c0.03,0,0.06-0.01,0.09-0.02l0.05-0.03L7.1,10.24
		c-0.02-0.01-0.04-0.02-0.06-0.02c-0.01,0-0.02,0-0.03,0c-0.01,0-0.02,0.01-0.03,0.02l-0.02,0.01l-0.01,0.01l-0.01-0.01l-0.03-0.03
		l-0.01-0.01l0.01-0.01l0.02-0.01c0.02-0.01,0.03-0.02,0.05-0.03c0.01-0.01,0.03-0.01,0.05-0.01c0.02,0,0.05,0.01,0.08,0.02
		l0.05,0.03c0.01,0.01,0.03,0.01,0.04,0.02l0.01,0v0.01v0.04v0.01l-0.01,0L7.19,10.3c0.01,0,0.02,0.01,0.03,0.01h0.03
		c0,0,0,0,0,0.01c0,0.01,0,0.01,0,0.02v0c0,0.01,0,0.01,0,0.02C7.25,10.36,7.25,10.37,7.25,10.37"/>
	<path class="st0" d="M7.51,10.37L7.51,10.37c-0.03,0-0.05-0.01-0.06-0.02c-0.02,0.01-0.04,0.02-0.06,0.02
		c-0.03,0-0.05-0.01-0.06-0.02c-0.01,0.01-0.03,0.02-0.05,0.02H7.24c0,0,0,0,0-0.01c0-0.01,0-0.01,0-0.02v0c0-0.01,0-0.01,0-0.02
		c0-0.01,0-0.01,0-0.01h0.02c0.01,0,0.01,0,0.02,0c0,0,0.01,0,0.01,0c0,0,0,0,0-0.01c0-0.01,0-0.02,0-0.03
		c0-0.03,0.01-0.06,0.02-0.08c0.02-0.02,0.04-0.03,0.07-0.03c0.03,0,0.05,0.01,0.07,0.03c0.02,0.02,0.02,0.04,0.02,0.08
		c0,0,0,0.01,0,0.01c0,0,0,0.01,0,0.01c0,0,0,0.01,0,0.01c0,0,0,0,0,0s0,0,0.01,0c0,0,0.01,0,0.02,0h0.01c0,0,0,0,0,0.01
		c0,0.01,0,0.01,0,0.02v0c0,0.01,0,0.01,0,0.02C7.51,10.36,7.51,10.37,7.51,10.37 M7.36,10.3c0.01,0.01,0.01,0.01,0.02,0.01
		c0.01,0,0.02,0,0.02-0.01c0.01-0.01,0.01-0.02,0.01-0.03c0-0.02,0-0.03-0.01-0.03c0-0.01-0.01-0.01-0.02-0.01
		c-0.01,0-0.02,0-0.02,0.01c0,0.01-0.01,0.02-0.01,0.03C7.35,10.28,7.36,10.29,7.36,10.3"/>
	<path class="st0" d="M7.68,10.37L7.68,10.37c-0.03,0-0.06-0.01-0.07-0.03c-0.01,0.01-0.02,0.02-0.03,0.02
		c-0.01,0-0.02,0.01-0.04,0.01H7.51c0,0,0,0,0-0.01c0-0.01,0-0.01,0-0.02v0c0-0.01,0-0.01,0-0.02c0-0.01,0-0.01,0-0.01h0.03
		c0.01,0,0.03,0,0.03-0.01c0.01-0.01,0.01-0.01,0.01-0.03v-0.22v-0.01h0.01h0.04h0.01v0.01v0.22c0,0.01,0,0.02,0.01,0.03
		c0.01,0.01,0.02,0.01,0.03,0.01h0c0,0,0,0,0,0.01c0,0.01,0,0.01,0,0.02v0c0,0.01,0,0.01,0,0.02C7.68,10.36,7.68,10.37,7.68,10.37"
		/>
	<path class="st0" d="M7.68,10.3h0.03c0.01,0,0.02,0,0.03-0.01c0.01-0.01,0.01-0.02,0.01-0.03v-0.22v-0.01h0.01H7.8h0.01v0.01v0.22
		c0,0.03-0.01,0.06-0.03,0.08c-0.02,0.02-0.04,0.03-0.07,0.03H7.68c0,0,0,0,0-0.01c0-0.01,0-0.01,0-0.02v0c0-0.01,0-0.01,0-0.02
		C7.67,10.31,7.67,10.3,7.68,10.3"/>
	<path class="st0" d="M4.45,10.78h0.2c0.02,0,0.03,0,0.04-0.01c0.01-0.01,0.01-0.02,0.01-0.04v-0.05v-0.01h0.01h0.04h0.01v0.01v0.05
		c0,0.04-0.01,0.07-0.03,0.09c-0.02,0.02-0.05,0.03-0.09,0.03h-0.2c-0.04,0-0.07-0.01-0.09-0.03c-0.02-0.02-0.03-0.05-0.03-0.09
		v-0.05v-0.01h0.01h0.04h0.01v0.01v0.05c0,0.02,0,0.03,0.01,0.04C4.42,10.78,4.43,10.78,4.45,10.78 M4.46,10.63l0.04-0.04l0.04,0.04
		l-0.04,0.04L4.46,10.63z M4.55,10.63l0.04-0.04l0.04,0.04c0,0,0,0,0,0c0,0-0.01,0.01-0.02,0.02c-0.01,0.01-0.02,0.02-0.02,0.02
		L4.55,10.63z"/>
	<polygon class="st0" points="4.82,10.52 4.86,10.52 4.87,10.52 4.87,10.53 4.87,10.84 4.87,10.85 4.86,10.85 4.82,10.85 
		4.81,10.85 4.81,10.84 4.81,10.53 4.81,10.52 	"/>
	<path class="st0" d="M4.88,10.9c0.06,0,0.09-0.03,0.09-0.08v-0.13v-0.01h0.01l0.04,0h0.01v0.01v0.13c0,0.04-0.01,0.08-0.04,0.11
		c-0.03,0.03-0.06,0.04-0.11,0.04l-0.02,0l-0.01,0v-0.01v-0.04V10.9h0.01H4.88z"/>
	<path class="st0" d="M5.17,10.85H5.16c-0.03,0-0.05-0.01-0.07-0.03c-0.02-0.02-0.02-0.04-0.02-0.08v-0.22v-0.01h0.01h0.04h0.01
		v0.01v0.22c0,0.01,0,0.02,0.01,0.03c0,0.01,0.01,0.01,0.02,0.01h0.01c0,0,0,0,0,0.01c0,0.01,0,0.01,0,0.02v0c0,0.01,0,0.01,0,0.02
		C5.18,10.85,5.18,10.85,5.17,10.85"/>
	<path class="st0" d="M5.24,10.78c0,0,0,0,0,0.01c0,0.01,0,0.01,0,0.02v0c0,0.01,0,0.01,0,0.02c0,0.01,0,0.01,0,0.01H5.17
		c0,0,0,0,0-0.01c0-0.01,0-0.01,0-0.02v0c0-0.01,0-0.01,0-0.02c0-0.01,0-0.01,0-0.01H5.24z"/>
	<path class="st0" d="M5.3,10.78c0,0,0,0,0,0.01c0,0.01,0,0.01,0,0.02v0c0,0.01,0,0.01,0,0.02c0,0.01,0,0.01,0,0.01H5.23
		c0,0,0,0,0-0.01c0-0.01,0-0.01,0-0.02v0c0-0.01,0-0.01,0-0.02c0-0.01,0-0.01,0-0.01H5.3z"/>
	<path class="st0" d="M5.36,10.78c0,0,0,0,0,0.01c0,0.01,0,0.01,0,0.02v0c0,0.01,0,0.01,0,0.02c0,0.01,0,0.01,0,0.01H5.3
		c0,0,0,0,0-0.01c0-0.01,0-0.01,0-0.02v0c0-0.01,0-0.01,0-0.02c0-0.01,0-0.01,0-0.01H5.36z"/>
	<path class="st0" d="M5.42,10.78c0,0,0,0,0,0.01c0,0.01,0,0.01,0,0.02v0c0,0.01,0,0.01,0,0.02c0,0.01,0,0.01,0,0.01H5.36
		c0,0,0,0,0-0.01c0-0.01,0-0.01,0-0.02v0c0-0.01,0-0.01,0-0.02c0-0.01,0-0.01,0-0.01H5.42z"/>
	<path class="st0" d="M5.48,10.78c0,0,0,0,0,0.01c0,0.01,0,0.01,0,0.02v0c0,0.01,0,0.01,0,0.02c0,0.01,0,0.01,0,0.01H5.42
		c0,0,0,0,0-0.01c0-0.01,0-0.01,0-0.02v0c0-0.01,0-0.01,0-0.02c0-0.01,0-0.01,0-0.01H5.48z"/>
	<path class="st0" d="M5.55,10.78c0,0,0,0,0,0.01c0,0.01,0,0.01,0,0.02v0c0,0.01,0,0.01,0,0.02c0,0.01,0,0.01,0,0.01H5.48
		c0,0,0,0,0-0.01c0-0.01,0-0.01,0-0.02v0c0-0.01,0-0.01,0-0.02c0-0.01,0-0.01,0-0.01H5.55z"/>
	<path class="st0" d="M5.61,10.78c0,0,0,0,0,0.01c0,0.01,0,0.01,0,0.02v0c0,0.01,0,0.01,0,0.02c0,0.01,0,0.01,0,0.01H5.54
		c0,0,0,0,0-0.01c0-0.01,0-0.01,0-0.02v0c0-0.01,0-0.01,0-0.02c0-0.01,0-0.01,0-0.01H5.61z"/>
	<path class="st0" d="M5.67,10.78c0,0,0,0,0,0.01c0,0.01,0,0.01,0,0.02v0c0,0.01,0,0.01,0,0.02c0,0.01,0,0.01,0,0.01H5.61
		c0,0,0,0,0-0.01c0-0.01,0-0.01,0-0.02v0c0-0.01,0-0.01,0-0.02c0-0.01,0-0.01,0-0.01H5.67z"/>
	<path class="st0" d="M5.73,10.78c0,0,0,0,0,0.01c0,0.01,0,0.01,0,0.02v0c0,0.01,0,0.01,0,0.02c0,0.01,0,0.01,0,0.01H5.67
		c0,0,0,0,0-0.01c0-0.01,0-0.01,0-0.02v0c0-0.01,0-0.01,0-0.02c0-0.01,0-0.01,0-0.01H5.73z"/>
	<path class="st0" d="M5.79,10.78c0,0,0,0,0,0.01c0,0.01,0,0.01,0,0.02v0c0,0.01,0,0.01,0,0.02c0,0.01,0,0.01,0,0.01H5.73
		c0,0,0,0,0-0.01c0-0.01,0-0.01,0-0.02v0c0-0.01,0-0.01,0-0.02c0-0.01,0-0.01,0-0.01H5.79z"/>
	<path class="st0" d="M5.86,10.78c0,0,0,0,0,0.01c0,0.01,0,0.01,0,0.02v0c0,0.01,0,0.01,0,0.02c0,0.01,0,0.01,0,0.01H5.79
		c0,0,0,0,0-0.01c0-0.01,0-0.01,0-0.02v0c0-0.01,0-0.01,0-0.02c0-0.01,0-0.01,0-0.01H5.86z"/>
	<path class="st0" d="M5.92,10.78c0,0,0,0,0,0.01c0,0.01,0,0.01,0,0.02v0c0,0.01,0,0.01,0,0.02c0,0.01,0,0.01,0,0.01H5.85
		c0,0,0,0,0-0.01c0-0.01,0-0.01,0-0.02v0c0-0.01,0-0.01,0-0.02c0-0.01,0-0.01,0-0.01H5.92z"/>
	<path class="st0" d="M5.98,10.78c0,0,0,0,0,0.01c0,0.01,0,0.01,0,0.02v0c0,0.01,0,0.01,0,0.02c0,0.01,0,0.01,0,0.01H5.92
		c0,0,0,0,0-0.01c0-0.01,0-0.01,0-0.02v0c0-0.01,0-0.01,0-0.02c0-0.01,0-0.01,0-0.01H5.98z"/>
	<path class="st0" d="M6.04,10.78c0,0,0,0,0,0.01c0,0.01,0,0.01,0,0.02v0c0,0.01,0,0.01,0,0.02c0,0.01,0,0.01,0,0.01H5.98
		c0,0,0,0,0-0.01c0-0.01,0-0.01,0-0.02v0c0-0.01,0-0.01,0-0.02c0-0.01,0-0.01,0-0.01H6.04z"/>
	<path class="st0" d="M6.1,10.78c0,0,0,0,0,0.01c0,0.01,0,0.01,0,0.02v0c0,0.01,0,0.01,0,0.02c0,0.01,0,0.01,0,0.01H6.04
		c0,0,0,0,0-0.01c0-0.01,0-0.01,0-0.02v0c0-0.01,0-0.01,0-0.02c0-0.01,0-0.01,0-0.01H6.1z"/>
	<path class="st0" d="M6.17,10.78c0,0,0,0,0,0.01c0,0.01,0,0.01,0,0.02v0c0,0.01,0,0.01,0,0.02c0,0.01,0,0.01,0,0.01H6.1
		c0,0,0,0,0-0.01c0-0.01,0-0.01,0-0.02v0c0-0.01,0-0.01,0-0.02c0-0.01,0-0.01,0-0.01H6.17z"/>
	<path class="st0" d="M6.61,10.85L6.61,10.85c-0.04,0-0.06-0.01-0.08-0.03c-0.01,0.02-0.03,0.03-0.06,0.03
		c-0.03,0-0.05-0.01-0.07-0.03c-0.02,0.02-0.04,0.03-0.07,0.03c-0.03,0-0.05-0.01-0.07-0.03c-0.02,0.02-0.04,0.03-0.08,0.03H6.16
		c0,0,0,0,0-0.01s0-0.01,0-0.02v0c0-0.01,0-0.01,0-0.02c0-0.01,0-0.01,0-0.01h0.02c0.02,0,0.03,0,0.04-0.01
		c0.01-0.01,0.01-0.02,0.01-0.03v-0.06v-0.01h0.01h0.04H6.3v0.01l0,0.06c0,0.01,0,0.02,0.01,0.03c0.01,0.01,0.01,0.01,0.03,0.01
		c0.01,0,0.01,0,0.02,0c0.01,0,0.01-0.01,0.01-0.01c0-0.01,0-0.01,0-0.02l0-0.06v-0.01h0.01h0.04h0.01v0.01l0,0.06
		c0,0.01,0,0.02,0.01,0.03c0.01,0.01,0.01,0.01,0.03,0.01c0.01,0,0.01,0,0.01,0c0,0,0.01-0.01,0.01-0.01c0-0.01,0-0.01,0-0.02v-0.06
		v-0.01H6.5h0.04h0.01v0.01l0,0.06c0,0.01,0,0.02,0.01,0.03c0.01,0.01,0.02,0.01,0.03,0.01h0.01c0,0,0,0,0,0.01
		c0,0.01,0,0.01,0,0.02v0c0,0.01,0,0.01,0,0.02C6.61,10.85,6.61,10.85,6.61,10.85 M6.31,10.59l0.04-0.04l0.04,0.04l-0.04,0.04
		L6.31,10.59z M6.35,10.53l0.04-0.04l0.04,0.04l-0.04,0.04L6.35,10.53z M6.4,10.59l0.04-0.04l0.04,0.04l-0.04,0.04L6.4,10.59z"/>
	<path class="st0" d="M6.83,10.85L6.83,10.85c-0.04,0-0.06-0.01-0.08-0.03c-0.02,0.02-0.05,0.03-0.08,0.03H6.61c0,0,0,0,0-0.01
		c0-0.01,0-0.01,0-0.02v0c0-0.01,0-0.01,0-0.02c0-0.01,0-0.01,0-0.01h0.06c0.02,0,0.03,0,0.04-0.01c0.01-0.01,0.01-0.02,0.01-0.03
		v-0.06v-0.01h0.01h0.04h0.01v0.01v0.06c0,0.01,0,0.02,0.01,0.03c0.01,0.01,0.02,0.01,0.03,0.01h0.01c0,0,0,0,0,0.01
		c0,0.01,0,0.01,0,0.02v0c0,0.01,0,0.01,0,0.02C6.83,10.85,6.83,10.85,6.83,10.85 M6.62,10.59l0.04-0.04l0.04,0.04l-0.04,0.04
		L6.62,10.59z M6.71,10.59l0.04-0.04l0.04,0.04c0,0,0,0,0,0c0,0-0.01,0.01-0.02,0.02c-0.01,0.01-0.02,0.02-0.02,0.02L6.71,10.59z"/>
	<path class="st0" d="M6.82,10.78h0.02c0.02,0,0.03,0,0.04-0.01c0.01-0.01,0.01-0.02,0.01-0.03v-0.06v-0.01h0.01h0.04h0.01v0.01
		l0,0.06c0,0.01,0,0.02,0.01,0.03c0.01,0.01,0.01,0.01,0.03,0.01c0.01,0,0.02,0,0.03-0.01c0.01-0.01,0.01-0.02,0.01-0.03l0-0.06
		v-0.01h0.01h0.04h0.01v0.01l0,0.06c0,0.01,0,0.02,0.01,0.03c0.01,0.01,0.01,0.01,0.03,0.01c0.01,0,0.02,0,0.02-0.01
		c0-0.01,0.01-0.02,0.01-0.03v-0.07v-0.01h0.01h0.04h0.01v0.01v0.08c0,0.03-0.01,0.06-0.02,0.07c-0.02,0.02-0.04,0.03-0.06,0.03
		c-0.03,0-0.05-0.01-0.07-0.03c-0.02,0.02-0.04,0.03-0.07,0.03c-0.03,0-0.05-0.01-0.07-0.03c-0.02,0.02-0.04,0.03-0.08,0.03H6.82
		c0,0,0,0,0-0.01c0-0.01,0-0.01,0-0.02v0c0-0.01,0-0.01,0-0.02C6.82,10.79,6.82,10.78,6.82,10.78"/>
	<path class="st0" d="M7.25,10.96c-0.01,0-0.01-0.01-0.01-0.02c0-0.01,0-0.01,0-0.02c0-0.02,0.01-0.03,0.02-0.04
		c0.01-0.01,0.02-0.01,0.04-0.01c0,0,0.01,0,0.01,0c0,0,0.01,0,0.01,0c0,0,0.01,0,0.01,0.01l0,0v0l0,0.03v0l0,0
		c0,0-0.01,0-0.01-0.01c0,0-0.01,0-0.01,0c0,0-0.01,0-0.01,0c-0.02,0-0.03,0.01-0.03,0.02c0,0,0,0.01,0,0.01c0,0,0,0,0.01,0.01
		c0,0,0.01,0,0.01,0.01c0,0,0,0,0,0c0,0,0,0,0,0c0,0,0.01,0,0.02,0c0.01,0,0.01,0,0.02,0l0,0v0v0.03v0l0,0L7.23,11l0,0v0v-0.03v0
		l0,0L7.25,10.96z M7.49,10.74c0,0.03-0.01,0.06-0.03,0.08c-0.02,0.02-0.04,0.03-0.08,0.03H7.27H7.26v-0.01v-0.04v-0.01h0.01h0.12
		c0.01,0,0.03,0,0.03-0.01c0.01-0.01,0.01-0.02,0.01-0.04v-0.21v-0.01h0.01h0.04h0.01v0.01V10.74z M7.27,10.53h0.04h0.01v0.01v0.22
		v0.01H7.31H7.27H7.26v-0.01L7.27,10.53L7.27,10.53L7.27,10.53z"/>
	<polygon class="st0" points="7.55,10.52 7.59,10.52 7.6,10.52 7.6,10.53 7.6,10.84 7.6,10.85 7.59,10.85 7.55,10.85 7.54,10.85 
		7.54,10.84 7.54,10.53 7.54,10.52 	"/>
	<path class="st0" d="M7.83,10.75v0.09c0,0.04-0.01,0.07-0.04,0.09c-0.03,0.02-0.06,0.03-0.11,0.03H7.66H7.65v-0.01v-0.04V10.9h0.01
		h0.02c0.06,0,0.09-0.02,0.09-0.05H7.74c-0.03,0-0.05-0.01-0.07-0.02c-0.02-0.02-0.02-0.04-0.02-0.07c0-0.01,0-0.03,0.01-0.04
		c0-0.01,0.01-0.02,0.02-0.03c0.01-0.01,0.02-0.02,0.03-0.02c0.01-0.01,0.03-0.01,0.04-0.01c0.03,0,0.05,0.01,0.07,0.03
		C7.82,10.7,7.83,10.72,7.83,10.75 M7.71,10.75c0,0.01,0,0.02,0.01,0.02c0.01,0,0.01,0.01,0.03,0.01h0.03v-0.03
		c0-0.03-0.01-0.04-0.03-0.04C7.72,10.71,7.71,10.73,7.71,10.75"/>
	<path class="st1" d="M6.91,8.23c0-0.02,0-0.04,0-0.07C6.91,8.18,6.91,8.2,6.91,8.23"/>
	<path class="st2" d="M12.22,5.95c-0.11-0.22-0.17-0.34-0.17-0.36c0.07,0.02,0.12,0.03,0.16,0.03c0.03,0,0.05-0.01,0.05-0.03
		c0-0.02-0.01-0.04-0.04-0.07c-0.17-0.17-0.28-0.28-0.33-0.34c-0.02-0.02-0.03-0.02-0.04-0.02c-0.01,0-0.02,0.02-0.02,0.05
		c-0.04,0.18-0.06,0.28-0.06,0.3c0,0.02,0.01,0.05,0.04,0.07c0.03,0.02,0.05,0.06,0.07,0.13C11.92,5.9,12,6.09,12.1,6.28
		c0.1,0.17,0.14,0.25,0.14,0.26c-0.08,0.14-0.28,0.3-0.61,0.49c-0.24,0.14-0.5,0.27-0.78,0.37c-0.09,0.03-0.17,0.06-0.26,0.09
		c-0.08,0.03-0.16,0.05-0.24,0.08C9.77,7.75,9.18,7.84,8.59,7.84c-0.06,0-0.13,0-0.19,0c-0.08,0-0.17,0-0.26-0.01
		C8.07,7.83,8,7.83,7.92,7.82C7.82,7.82,7.7,7.81,7.59,7.8c-0.01,0-0.02,0-0.04,0C7.48,7.78,7.4,7.77,7.32,7.76
		C7.19,7.75,7.07,7.73,6.95,7.71C6.89,7.69,6.83,7.68,6.77,7.67c-0.02,0-0.03-0.01-0.05-0.01c-0.2-0.04-0.38-0.1-0.56-0.16
		C5.86,7.4,5.5,7.21,5.1,6.95C5,6.88,4.94,6.85,4.93,6.85c-0.01,0-0.01,0-0.01,0.01c0,0.01,0.03,0.06,0.1,0.15
		C5.15,7.19,5.3,7.36,5.47,7.52C5.6,7.63,5.7,7.71,5.77,7.74C6.05,7.89,6.38,8,6.76,8.09c0.02,0,0.03,0.01,0.05,0.01
		c0.06,0.01,0.11,0.02,0.17,0.03C7.1,8.15,7.23,8.17,7.36,8.19C7.43,8.2,7.51,8.2,7.59,8.21c0.01,0,0.02,0,0.02,0
		c0.12,0.01,0.24,0.02,0.35,0.03c0.07,0,0.15,0.01,0.22,0.01c0.08,0,0.16,0,0.23,0c0.03,0,0.05,0,0.08,0c0.71,0,1.42-0.12,2.13-0.37
		c0.06-0.02,0.12-0.04,0.18-0.07c0.03-0.01,0.06-0.02,0.09-0.03c0.65-0.26,1.07-0.53,1.27-0.82c0.09-0.12,0.14-0.23,0.17-0.32
		c0.02-0.06,0.03-0.14,0.03-0.24C12.35,6.28,12.31,6.13,12.22,5.95"/>
	<path class="st1" d="M6.91,8.23c0-0.02,0-0.04,0-0.07C6.91,8.18,6.91,8.2,6.91,8.23"/>
	<path class="st2" d="M13.83,10.02c0.03-0.08,0.04-0.16,0.09-0.23c0.13-0.19,0.27-0.36,0.4-0.55c0.05-0.07,0.09-0.14,0.14-0.21
		C14.36,8.96,14.27,9,14.18,9.04c-0.37,0.13-0.73,0.28-1.09,0.41c-0.49,0.18-0.99,0.3-1.51,0.31c-0.46,0.01-0.65-0.12-0.79-0.56
		c-0.01-0.02-0.01-0.03-0.01-0.03c-0.08,0.12-0.16,0.26-0.25,0.38C10.26,9.85,9.76,9.82,9.58,9.5C9.54,9.43,9.52,9.34,9.47,9.28
		C9.44,9.24,9.38,9.2,9.34,9.21C9.08,9.25,8.88,9.38,8.73,9.6c-0.07,0.1-0.07,0.2,0,0.3c0.12,0.18,0.3,0.28,0.49,0.37
		c0.07,0.03,0.09,0.07,0.09,0.15c-0.01,0.13,0,0.25,0,0.39c-0.33-0.09-0.61-0.21-0.85-0.42c-0.23-0.2-0.35-0.46-0.38-0.76
		c-0.06-0.7-0.11-1.4-0.18-2.1c-0.04-0.39-0.1-0.78-0.15-1.17c-0.01-0.06,0-0.12,0.02-0.17C7.8,6.08,7.85,5.97,7.92,5.87
		C7.96,6.1,8,6.32,8.02,6.55c0.08,0.89,0.16,1.78,0.24,2.67C8.28,9.45,8.33,9.68,8.5,9.88C8.5,9.81,8.51,9.75,8.52,9.7
		c0.05-0.43,0.46-0.87,0.87-0.93c0.14-0.02,0.18,0,0.23,0.13c0.01,0.02,0.01,0.03,0.02,0.05c0.15,0.37,0.5,0.47,0.85,0.26
		c0.13-0.08,0.19-0.17,0.18-0.33c-0.04-0.6-0.07-1.2-0.1-1.81c-0.03-0.48-0.07-0.97-0.09-1.45c0-0.1,0.06-0.2,0.1-0.3
		c0.02-0.05,0.04-0.1,0.06-0.14c0.01,0,0.02,0,0.03,0c0.02,0.13,0.05,0.26,0.06,0.4c0.05,0.63,0.09,1.25,0.13,1.88
		c0.04,0.47,0.06,0.95,0.13,1.42c0.05,0.34,0.21,0.44,0.55,0.45c0.64,0.01,1.25-0.17,1.84-0.39c0.28-0.11,0.55-0.22,0.83-0.32
		c0.08-0.03,0.18-0.04,0.27-0.03c0.16,0.01,0.26,0.13,0.21,0.28c-0.04,0.13-0.11,0.26-0.19,0.37c-0.09,0.12-0.2,0.23-0.3,0.35
		c-0.09,0.12-0.18,0.25-0.27,0.37c-0.03,0.04-0.05,0.07-0.07,0.11C13.86,10.03,13.85,10.03,13.83,10.02"/>
	<path class="st2" d="M9.89,10.09c0.14,0.08,0.27,0.15,0.41,0.23c0.07-0.11,0.13-0.22,0.2-0.35c0.13,0.08,0.26,0.15,0.4,0.23
		c-0.07,0.14-0.13,0.28-0.2,0.42c-0.14-0.08-0.27-0.16-0.41-0.24c-0.07,0.11-0.13,0.22-0.2,0.34c-0.13-0.07-0.25-0.14-0.39-0.22
		C9.76,10.38,9.82,10.24,9.89,10.09"/>
	<path class="st2" d="M11.13,6.54c0.07-0.14,0.13-0.28,0.2-0.42c0.14,0.07,0.27,0.14,0.41,0.21c-0.07,0.14-0.13,0.28-0.2,0.42
		C11.4,6.68,11.27,6.61,11.13,6.54"/>
	<path class="st2" d="M7.47,9.61C7.45,9.38,7.44,9.17,7.42,8.96C7.35,8.12,7.28,7.27,7.22,6.42C7.2,6.23,7.18,6.04,7.17,5.85
		c0-0.03,0-0.06-0.01-0.08C7.03,5.54,7.21,5.38,7.27,5.19c0.01,0,0.02,0,0.03,0c0.11,0.33,0.21,0.66,0.32,0.99
		C7.61,6.18,7.59,6.19,7.58,6.19c-0.05-0.05-0.1-0.1-0.16-0.17c0.02,0.27,0.04,0.51,0.06,0.75c0.05,0.67,0.1,1.35,0.16,2.02
		c0.02,0.24-0.02,0.47-0.1,0.7C7.53,9.52,7.52,9.54,7.51,9.56C7.5,9.57,7.5,9.58,7.47,9.61"/>
	<path class="st0" d="M14.01,7.5C14,7.53,13.99,7.55,13.98,7.55c-0.01,0-0.02-0.02-0.01-0.06c0.01-0.04,0.01-0.08,0.01-0.14
		c0-0.19-0.11-0.38-0.32-0.57c-0.01-0.01-0.02-0.03-0.01-0.04l0.06-0.11c0.01-0.01,0.01-0.01,0.03,0c0.21,0.16,0.32,0.37,0.32,0.64
		C14.06,7.34,14.04,7.42,14.01,7.5"/>
	<path class="st0" d="M8.61,8.96C8.6,8.98,8.59,8.99,8.59,8.99c-0.01,0-0.01-0.01,0-0.03c0-0.02,0.01-0.05,0.01-0.08
		c0-0.1-0.06-0.21-0.18-0.31c-0.01-0.01-0.01-0.01,0-0.02l0.03-0.06c0,0,0.01,0,0.01,0c0.12,0.09,0.17,0.2,0.17,0.35
		C8.63,8.87,8.63,8.92,8.61,8.96"/>
	<path class="st0" d="M2.66,7c0,0.02-0.02,0.06-0.07,0.13C2.53,7.21,2.48,7.26,2.43,7.3C2.4,7.32,2.3,7.36,2.12,7.4
		C2.09,7.41,2.07,7.41,2.07,7.41c0,0,0.01-0.01,0.03-0.03c0.02-0.02,0.09-0.05,0.19-0.11c0.1-0.05,0.16-0.09,0.17-0.1
		c0,0,0-0.01,0-0.01c0-0.02-0.09-0.04-0.26-0.04c0,0-0.03,0-0.1,0c-0.03,0-0.05,0-0.05-0.01c0,0,0-0.01,0.01-0.03L2.13,7
		c0.02-0.03,0.05-0.05,0.1-0.06c0.02,0,0.06,0,0.12,0C2.56,6.93,2.66,6.96,2.66,7"/>
	<path class="st0" d="M11.45,8.64c0.93-0.28,1.91-0.58,2.92-0.88c0.04-0.01,0.06-0.01,0.07-0.01c0.01,0.01,0.01,0.03-0.01,0.06
		c-0.05,0.1-0.09,0.16-0.12,0.18c-0.85,0.26-1.86,0.58-3.01,0.96C11.34,8.86,11.39,8.75,11.45,8.64"/>
	<path class="st0" d="M8.5,7.3c0.54-0.16,1.1-0.33,1.68-0.51c0.02-0.01,0.04-0.01,0.04-0.01c0.01,0,0,0.02-0.01,0.04
		c-0.03,0.06-0.05,0.09-0.07,0.11C9.66,7.07,9.08,7.26,8.42,7.48C8.44,7.42,8.47,7.36,8.5,7.3"/>
	<path class="st0" d="M5.09,5.38c0.11,0,0.21,0.06,0.29,0.19c0.09,0.13,0.15,0.29,0.18,0.5c0,0.02,0.01,0.03,0.01,0.04
		c0,0.01,0.01,0.01,0.01,0c0,0,0.01-0.02,0.01-0.04c0.02-0.12,0.06-0.31,0.13-0.55c0.07-0.17,0.15-0.26,0.24-0.26
		c0.04,0,0.09,0.03,0.13,0.09c0.04,0.05,0.06,0.1,0.06,0.13c0,0.03-0.01,0.06-0.02,0.1C6.11,5.63,6.09,5.65,6.07,5.65
		c-0.01,0-0.03-0.02-0.06-0.06c-0.03-0.04-0.07-0.06-0.1-0.06c-0.08,0-0.15,0.18-0.21,0.54C5.66,6.23,5.63,6.34,5.6,6.41
		C5.57,6.45,5.55,6.47,5.53,6.47c-0.01,0-0.02-0.02-0.02-0.06c0-0.06-0.04-0.19-0.11-0.37C5.33,5.86,5.27,5.77,5.24,5.77
		c-0.02,0-0.03,0.01-0.04,0.02C5.2,5.8,5.18,5.81,5.15,5.81c-0.03,0-0.08-0.02-0.13-0.07C4.97,5.69,4.94,5.65,4.94,5.62
		c0-0.01,0.02-0.06,0.07-0.13C5.05,5.41,5.08,5.38,5.09,5.38"/>
	<path class="st0" d="M12.12,7.73c0,0.08-0.03,0.18-0.1,0.28c-0.07,0.11-0.16,0.21-0.27,0.29c-0.04,0.03-0.07,0.05-0.08,0.05
		c0,0,0,0,0,0c0-0.01,0.02-0.03,0.05-0.07c0.18-0.2,0.27-0.34,0.27-0.4c0-0.06-0.03-0.1-0.09-0.1c-0.03,0-0.06,0.01-0.09,0.03
		c-0.02,0.01-0.03,0.02-0.04,0.02c0,0-0.01,0-0.01-0.01c0-0.01,0.01-0.02,0.01-0.05c0.03-0.14,0.1-0.21,0.2-0.21
		C12.07,7.56,12.12,7.62,12.12,7.73"/>
	<path class="st0" d="M8.72,5.83c0,0.05-0.02,0.1-0.06,0.16C8.63,6.05,8.58,6.11,8.51,6.15C8.49,6.17,8.48,6.18,8.47,6.18
		c0,0,0,0,0,0c0,0,0.01-0.02,0.03-0.04c0.1-0.11,0.15-0.19,0.15-0.23c0-0.04-0.02-0.05-0.05-0.05c-0.02,0-0.03,0.01-0.05,0.02
		C8.54,5.88,8.54,5.88,8.53,5.88c0,0,0,0-0.01,0c0,0,0-0.01,0.01-0.03c0.02-0.08,0.05-0.11,0.11-0.11C8.7,5.74,8.72,5.77,8.72,5.83"
		/>
	<path class="st0" d="M6.15,6.8c0.08,0.06,0.11,0.11,0.11,0.17c0,0.06-0.01,0.1-0.02,0.11C6.2,7.12,6.16,7.14,6.11,7.14
		c-0.05,0-0.07-0.03-0.07-0.09c0-0.01,0-0.03,0-0.04c0.01-0.05,0.03-0.12,0.07-0.2c0.03-0.08,0.05-0.14,0.05-0.19
		c0-0.1-0.05-0.2-0.14-0.29c-0.01-0.01-0.01-0.01,0-0.02l0.03-0.06c0,0,0.01,0,0.01,0C6.16,6.32,6.2,6.43,6.2,6.58
		C6.2,6.65,6.19,6.72,6.15,6.8 M6.23,6.99c0-0.02-0.04-0.05-0.11-0.09C6.09,6.94,6.08,6.98,6.08,7.01c0,0.02,0.01,0.03,0.03,0.03
		c0.02,0,0.04-0.01,0.06-0.02C6.2,7.01,6.22,7,6.23,6.99"/>
	<path class="st0" d="M12.87,7.13C12.9,7,12.94,6.84,13.02,6.66c0.06-0.14,0.09-0.29,0.09-0.43c0-0.27-0.13-0.53-0.38-0.78
		c-0.02-0.02-0.02-0.04-0.01-0.06l0.09-0.15c0.01-0.01,0.02-0.01,0.04,0c0.25,0.2,0.38,0.5,0.38,0.88c0,0.18-0.04,0.38-0.12,0.58
		c-0.08,0.21-0.12,0.35-0.12,0.42c0,0.16,0.04,0.24,0.13,0.24c0.05,0,0.11-0.06,0.17-0.17c0.01-0.01,0.01-0.02,0.02-0.03
		c0.01,0,0.01,0,0.01,0c0.01,0.01,0.01,0.02,0,0.03c-0.05,0.28-0.14,0.42-0.25,0.42c-0.12,0-0.18-0.11-0.18-0.34
		C12.86,7.23,12.87,7.18,12.87,7.13"/>
	<path class="st0" d="M9.55,6.2C9.49,6.31,9.39,6.42,9.24,6.52C9.1,6.61,8.98,6.68,8.86,6.73C8.84,6.74,8.71,6.78,8.47,6.86
		C8.44,6.87,8.41,6.87,8.4,6.87c-0.01,0-0.01,0-0.01,0c0-0.01,0.02-0.03,0.07-0.05c0.2-0.1,0.48-0.26,0.84-0.47
		C9.39,6.28,9.46,6.22,9.5,6.17c0.06-0.07,0.09-0.1,0.1-0.1c0,0,0,0,0,0C9.6,6.09,9.58,6.13,9.55,6.2 M10.06,5.4
		c0,0.02-0.01,0.04-0.02,0.07c-0.01,0.04-0.03,0.06-0.05,0.06c-0.01,0-0.02-0.02-0.05-0.05C9.92,5.45,9.9,5.44,9.87,5.44
		c-0.06,0-0.12,0.13-0.18,0.4c-0.03,0.12-0.05,0.2-0.08,0.25C9.59,6.12,9.57,6.13,9.56,6.13c-0.01,0-0.02-0.02-0.02-0.05
		c0-0.05-0.02-0.14-0.07-0.28C9.42,5.67,9.39,5.59,9.36,5.59c-0.02,0-0.03,0-0.03,0.01c0,0.01-0.02,0.01-0.04,0.01
		c-0.02,0-0.06-0.02-0.09-0.06C9.16,5.52,9.14,5.49,9.14,5.47c0-0.01,0.02-0.04,0.06-0.1c0.04-0.05,0.06-0.08,0.07-0.08
		c0.08,0,0.15,0.06,0.21,0.15c0.06,0.1,0.1,0.23,0.12,0.38c0,0.02,0,0.03,0,0.03c0,0.01,0.01,0.01,0.01,0c0,0,0.01-0.01,0.01-0.03
		C9.63,5.74,9.67,5.6,9.73,5.42c0.06-0.13,0.12-0.19,0.19-0.19c0.03,0,0.07,0.03,0.1,0.07C10.04,5.34,10.06,5.37,10.06,5.4"/>
	<path class="st0" d="M3.48,8.29c0-0.01,0.01-0.01,0.01-0.01c0,0,0,0,0,0c0,0,0,0.01,0,0.02C3.47,8.44,3.43,8.52,3.36,8.52
		c-0.07,0-0.1-0.06-0.1-0.17c0-0.14,0.04-0.28,0.12-0.43C3.4,7.89,3.41,7.87,3.42,7.87c0,0,0,0,0,0c0,0.01-0.01,0.03-0.02,0.06
		C3.35,8.09,3.32,8.19,3.32,8.26c0,0.08,0.02,0.13,0.07,0.13C3.42,8.38,3.45,8.35,3.48,8.29"/>
	<path class="st0" d="M13.9,5.71c0-0.01,0.01-0.01,0.01-0.02c0,0,0.01,0,0.01,0c0,0,0,0.01,0,0.02c-0.04,0.2-0.09,0.29-0.18,0.29
		c-0.09,0-0.13-0.07-0.13-0.21c0-0.18,0.05-0.36,0.15-0.55c0.03-0.05,0.04-0.07,0.05-0.07c0,0,0,0,0,0c0,0.01-0.01,0.04-0.02,0.08
		c-0.07,0.2-0.1,0.34-0.1,0.42c0,0.11,0.03,0.16,0.09,0.16C13.81,5.83,13.85,5.79,13.9,5.71"/>
	<path class="st0" d="M10.3,8.72c0-0.01,0.01-0.01,0.01-0.01c0,0,0,0,0,0c0,0,0,0.01,0,0.02c-0.03,0.15-0.07,0.23-0.14,0.23
		c-0.07,0-0.1-0.06-0.1-0.17c0-0.14,0.04-0.28,0.12-0.43c0.02-0.04,0.03-0.06,0.04-0.06c0,0,0,0,0,0c0,0.01-0.01,0.03-0.02,0.06
		c-0.05,0.15-0.08,0.26-0.08,0.32c0,0.08,0.02,0.13,0.07,0.13C10.23,8.82,10.26,8.78,10.3,8.72"/>
	<path class="st2" d="M7.01,5.98C6.94,5.64,6.79,5.33,6.65,5C6.6,5.13,6.55,5.26,6.49,5.39c-0.01,0.01,0,0.04,0,0.05
		C6.6,5.67,6.58,5.93,6.6,6.18c0.04,0.49,0.08,0.99,0.12,1.48c0.01,0.09,0.01,0.18,0.02,0.27c0,0.05,0.01,0.11,0.01,0.16
		c0.02,0,0.03,0.01,0.05,0.01c0.06,0.01,0.11,0.02,0.17,0.03C6.97,7.99,6.96,7.85,6.95,7.71c-0.03-0.47-0.07-0.95-0.1-1.42
		C6.84,6.14,6.83,6.01,6.82,5.85C6.88,5.91,6.93,5.96,6.98,6C6.99,6,7,5.99,7.01,5.98"/>
	<path class="st2" d="M7.01,8.67C7,8.49,6.99,8.31,6.98,8.13C6.92,8.12,6.86,8.11,6.8,8.1c-0.02,0-0.03-0.01-0.05-0.01
		C6.78,8.38,6.8,8.67,6.82,8.97C6.82,9,6.8,9.06,6.78,9.07C6.41,9.29,5.84,9.23,5.57,8.96c0.1-0.03,0.19-0.07,0.28-0.1
		c0.1-0.03,0.22-0.04,0.28-0.1c0.07-0.07,0.08-0.2,0.12-0.3c0-0.01,0.01-0.01,0.01-0.02C6.25,8.41,6.24,8.37,6.22,8.36
		C5.61,8.03,4.98,8.02,4.34,8.28C4.31,8.29,4.27,8.31,4.26,8.33C4.21,8.47,4.16,8.6,4.1,8.76C4.4,8.64,4.6,8.77,4.8,8.92
		C4.78,8.94,4.76,8.96,4.74,8.97c-0.37,0.21-0.7,0.48-0.98,0.81c-0.14,0.17-0.3,0.33-0.45,0.48c-0.16,0.15-0.34,0.27-0.56,0.3
		c-0.17,0.03-0.32-0.05-0.37-0.22c-0.03-0.12-0.06-0.26-0.03-0.37C2.39,9.74,2.48,9.52,2.55,9.3c0.01-0.02,0.01-0.03,0.02-0.05
		C2.63,9.22,2.68,9.16,2.7,9.05c0-0.03,0.01-0.05,0.01-0.05C2.7,9,2.7,9,2.7,9C2.69,9,2.68,9,2.66,9.02
		C2.64,9.04,2.61,9.05,2.58,9.05c-0.06,0-0.09-0.03-0.09-0.1c0-0.07,0.09-0.2,0.27-0.4C2.8,8.51,2.81,8.48,2.82,8.48c0,0,0,0,0,0
		c-0.01,0-0.03,0.02-0.08,0.05C2.63,8.6,2.54,8.69,2.47,8.81c-0.07,0.11-0.1,0.2-0.1,0.28c0,0.1,0.03,0.15,0.1,0.17
		c-0.21,0.36-0.33,0.75-0.22,1.18c0.12,0.5,0.57,0.67,0.98,0.35c0.17-0.13,0.32-0.29,0.46-0.45c0.38-0.46,0.83-0.84,1.36-1.12
		c0.06-0.03,0.1-0.04,0.16,0.01C5.3,9.29,5.39,9.35,5.48,9.42c0.35,0.26,0.73,0.3,1.14,0.15C6.78,9.51,6.91,9.4,6.94,9.22
		C6.98,9.04,7.02,8.85,7.01,8.67 M5.01,8.54c0.18,0.01,0.33,0.02,0.51,0.03C5.26,8.74,5.21,8.73,5.01,8.54"/>
	<path class="st2" d="M1.71,6.94c-0.03,0.07-0.05,0.13-0.08,0.2C1.56,7.37,1.48,7.59,1.43,7.82c-0.02,0.11,0,0.23,0.03,0.34
		C1.5,8.35,1.66,8.43,1.85,8.4c0.16-0.02,0.3-0.1,0.41-0.2c0.2-0.19,0.42-0.37,0.6-0.58c0.37-0.43,0.83-0.7,1.36-0.87
		c0.09-0.03,0.19-0.07,0.28-0.1c0.06-0.02,0.08-0.06,0.06-0.11c-0.03-0.1-0.05-0.21-0.1-0.3C4.39,6.11,4.37,5.99,4.41,5.86
		c0.02-0.07,0.03-0.15,0.05-0.25c0.17,0.22,0.25,0.44,0.28,0.68c0.02,0.19,0,0.37-0.07,0.54C4.6,6.99,4.49,7.09,4.33,7.14
		C4.08,7.24,3.81,7.32,3.58,7.46C3.36,7.6,3.17,7.8,2.98,7.98c-0.21,0.2-0.41,0.42-0.62,0.62c-0.47,0.45-0.98,0.09-1.05-0.4
		C1.24,7.73,1.4,7.33,1.64,6.96c0.01-0.01,0.02-0.02,0.04-0.03C1.69,6.93,1.7,6.93,1.71,6.94"/>
	<path class="st2" d="M3.81,7.83C3.87,7.69,3.93,7.56,4,7.41c0.14,0.08,0.27,0.15,0.41,0.23c0.07-0.11,0.13-0.22,0.2-0.35
		c0.13,0.08,0.26,0.15,0.4,0.23c-0.07,0.14-0.13,0.27-0.2,0.42C4.67,7.87,4.53,7.79,4.39,7.71C4.32,7.83,4.26,7.94,4.2,8.05
		C4.06,7.98,3.94,7.91,3.81,7.83"/>
	<path class="st2" d="M3.48,6.11c0.14,0.07,0.27,0.14,0.41,0.21c-0.07,0.14-0.13,0.28-0.2,0.42C3.55,6.67,3.42,6.6,3.28,6.53
		C3.34,6.39,3.41,6.25,3.48,6.11"/>
	<path class="st2" d="M3.49,8.82C3.63,8.89,3.76,8.96,3.9,9.03C3.83,9.18,3.77,9.31,3.7,9.45C3.56,9.38,3.43,9.32,3.29,9.24
		C3.36,9.1,3.42,8.97,3.49,8.82"/>
</g>
</svg>
